<?xml version="1.0" encoding="UTF-8"?>
<svg version="1.1" xmlns="http://www.w3.org/2000/svg" width="2048" height="2048">
<path d="M0 0 C1.86296614 -0.0070215 3.72593204 -0.01410832 5.58889771 -0.02125549 C11.51239364 -0.04066359 17.43585048 -0.04568967 23.359375 -0.046875 C24.36816963 -0.04731686 25.37696426 -0.04775871 26.41632843 -0.04821396 C56.74547781 -0.05518299 86.90361524 0.18549341 117.109375 3.203125 C118.00553528 3.29033813 118.90169556 3.37755127 119.82501221 3.46740723 C159.23752608 7.30937472 198.35183658 13.07659996 237.109375 21.203125 C238.39473145 21.47205566 239.68008789 21.74098633 241.00439453 22.01806641 C275.43270999 29.31806586 309.47492637 38.41490108 342.88598633 49.46807861 C345.17230278 50.22392876 347.46011145 50.97514036 349.74804688 51.72607422 C372.90155974 59.34596822 395.61706099 67.81206395 418.109375 77.203125 C418.74796448 77.46891357 419.38655396 77.73470215 420.04449463 78.00854492 C491.25180271 107.67307615 558.21539269 145.59986769 621.109375 190.203125 C621.88313477 190.7511377 622.65689453 191.29915039 623.45410156 191.86376953 C639.91720002 203.55235864 655.75741578 215.98226691 671.36962891 228.77929688 C672.92885827 230.05538804 674.493386 231.32499881 676.05859375 232.59375 C686.52971322 241.09293602 696.74212934 249.87165181 706.6796875 258.98828125 C708.71452915 260.84319317 710.77258747 262.65741298 712.859375 264.453125 C722.49087027 272.84375278 731.70254006 281.69926236 740.6730957 290.78833008 C744.05454069 294.19931194 747.55453083 297.38288846 751.22241211 300.48608398 C753.09691145 302.1917838 754.70065861 303.96810852 756.3359375 305.90234375 C760.06296815 310.21465552 764.04212749 314.21379411 768.109375 318.203125 C772.7543063 322.75907294 777.21922704 327.37895779 781.46582031 332.31005859 C783.89976824 335.1135096 786.44468283 337.80835846 788.984375 340.515625 C793.52286024 345.38898049 797.80286297 350.40616477 801.97265625 355.6015625 C804.06819994 358.15299229 806.24900655 360.58639273 808.484375 363.015625 C812.46199185 367.38549819 816.11814094 371.93922036 819.73730469 376.60424805 C823.33403439 381.23705993 827.01834988 385.79064 830.734375 390.328125 C836.03635739 396.82683174 841.17007025 403.42303711 846.109375 410.203125 C846.58842285 410.86006348 847.0674707 411.51700195 847.56103516 412.19384766 C859.05564431 427.98416873 870.40568791 443.86372123 881.109375 460.203125 C881.53541016 460.8518457 881.96144531 461.50056641 882.40039062 462.16894531 C900.68270617 490.05286214 917.46474747 518.76033885 933.109375 548.203125 C933.64272461 549.20134277 934.17607422 550.19956055 934.72558594 551.22802734 C943.46340269 567.61471371 951.46525219 584.28050123 959.109375 601.203125 C959.58616699 602.25467773 960.06295898 603.30623047 960.55419922 604.38964844 C985.11332735 658.73434849 1004.62236309 715.37039083 1019.109375 773.203125 C1019.2952417 773.94119385 1019.4811084 774.6792627 1019.67260742 775.43969727 C1033.38167229 829.95231291 1042.22237994 885.56913768 1046.796875 941.578125 C1046.88828262 942.69252457 1046.88828262 942.69252457 1046.98153687 943.82943726 C1048.47605402 962.28632558 1049.26918423 980.70968686 1049.3125 999.2265625 C1049.31948023 1001.09113588 1049.32652118 1002.95570904 1049.33361816 1004.82028198 C1049.35287623 1010.73956604 1049.35779318 1016.65881301 1049.359375 1022.578125 C1049.35996414 1023.58550217 1049.36055328 1024.59287933 1049.36116028 1025.63078308 C1049.37320253 1054.79175109 1049.19301366 1083.80771968 1046.33721924 1112.85516357 C1046.10441009 1115.25428899 1045.88604669 1117.65436234 1045.67138672 1120.05517578 C1041.08410278 1171.04493268 1032.34597658 1221.50822984 1020.109375 1271.203125 C1019.91408203 1271.99632141 1019.71878906 1272.78951782 1019.51757812 1273.60675049 C1013.55944643 1297.70658205 1006.60579727 1321.42389763 998.83532715 1344.99987793 C998.13660489 1347.12048294 997.4416031 1349.2422777 996.74707031 1351.36425781 C982.67406805 1394.22484942 965.06842394 1435.77207627 945.109375 1476.203125 C944.38664457 1477.67704696 943.66397627 1479.15099939 942.94140625 1480.625 C941.40752435 1483.737537 939.84745055 1486.83582721 938.27050781 1489.92675781 C937.39217662 1491.64870063 936.51709277 1493.37230038 935.64355469 1495.09667969 C927.79854293 1510.55720733 919.54538936 1525.68166071 910.66992188 1540.57421875 C909.26440783 1542.94195579 907.87695125 1545.31870083 906.5 1547.703125 C881.52718493 1590.87877318 852.19371985 1631.9271151 820.54931641 1670.44726562 C819.26571799 1672.01248092 817.98974428 1673.583942 816.71484375 1675.15625 C808.2186202 1685.62727146 799.43950678 1695.83734154 790.32421875 1705.7734375 C788.46930683 1707.80827915 786.65508702 1709.86633747 784.859375 1711.953125 C776.46874722 1721.58462027 767.61323764 1730.79629006 758.52416992 1739.7668457 C755.11318806 1743.14829069 751.92961154 1746.64828083 748.82641602 1750.31616211 C747.1207162 1752.19066145 745.34439148 1753.79440861 743.41015625 1755.4296875 C739.09784448 1759.15671815 735.09870589 1763.13587749 731.109375 1767.203125 C726.55342706 1771.8480563 721.93354221 1776.31297704 717.00244141 1780.55957031 C714.1989904 1782.99351824 711.50414154 1785.53843283 708.796875 1788.078125 C703.92351951 1792.61661024 698.90633523 1796.89661297 693.7109375 1801.06640625 C691.15950771 1803.16194994 688.72610727 1805.34275655 686.296875 1807.578125 C681.92236674 1811.55996087 677.36408425 1815.22054583 672.69287109 1818.84204102 C668.87622932 1821.80357984 665.11725783 1824.82272329 661.38964844 1827.89550781 C652.65004165 1835.09104511 643.63166013 1841.84906829 634.46777344 1848.49316406 C632.21199471 1850.1287204 629.96104915 1851.77072253 627.7109375 1853.4140625 C611.19157234 1865.44721355 594.5575427 1877.32693761 577.10351562 1887.97265625 C574.97132245 1889.28830924 572.85937183 1890.632451 570.75 1891.984375 C553.11415021 1903.28078576 535.00100583 1913.7974084 516.61962891 1923.83251953 C514.80538981 1924.82309902 512.99276489 1925.81663681 511.18115234 1926.81201172 C497.04318706 1934.57158548 482.80536522 1941.95532224 468.18408203 1948.76074219 C464.93803795 1950.28350131 461.70898322 1951.83888113 458.48046875 1953.3984375 C400.32249029 1981.29028283 338.62682139 2002.54259981 276.109375 2018.203125 C275.37130615 2018.3889917 274.6332373 2018.5748584 273.87280273 2018.76635742 C222.89096663 2031.58748681 170.85022877 2040.39918551 118.480896 2044.99023438 C116.13656116 2045.20068451 113.794168 2045.42642506 111.45166016 2045.65625 C54.18169321 2051.19090931 -6.08729434 2051.22115165 -63.33905029 2045.45959473 C-66.04062359 2045.188048 -68.74311052 2044.92717293 -71.44580078 2044.66699219 C-160.30628974 2036.01099102 -247.53699533 2016.49949328 -416.890625 1949.203125 C-418.75641336 1948.33182339 -420.62229643 1947.46072454 -422.48828125 1946.58984375 C-448.52947338 1934.37994181 -474.25601711 1920.68886129 -498.72021484 1905.54248047 C-501.48514319 1903.8362491 -504.26054295 1902.14746617 -507.03515625 1900.45703125 C-518.11237435 1893.69405605 -529.16264629 1886.91307198 -539.87451172 1879.58007812 C-542.26049212 1877.95051534 -544.65567639 1876.33487076 -547.05078125 1874.71875 C-566.13494295 1861.81353826 -584.65125078 1848.27522498 -602.890625 1834.203125 C-603.55578125 1833.69007812 -604.2209375 1833.17703125 -604.90625 1832.6484375 C-622.64219981 1818.92960453 -639.93678517 1804.57708241 -656.4609375 1789.41796875 C-658.49577915 1787.56305683 -660.55383747 1785.74883702 -662.640625 1783.953125 C-672.27212027 1775.56249722 -681.48379006 1766.70698764 -690.4543457 1757.61791992 C-693.83579069 1754.20693806 -697.33578083 1751.02336154 -701.00366211 1747.92016602 C-702.87816145 1746.2144662 -704.48190861 1744.43814148 -706.1171875 1742.50390625 C-709.84421815 1738.19159448 -713.82337749 1734.19245589 -717.890625 1730.203125 C-722.5355563 1725.64717706 -727.00047704 1721.02729221 -731.24707031 1716.09619141 C-733.68101824 1713.2927404 -736.22593283 1710.59789154 -738.765625 1707.890625 C-743.30411024 1703.01726951 -747.58411297 1698.00008523 -751.75390625 1692.8046875 C-753.84944994 1690.25325771 -756.03025655 1687.81985727 -758.265625 1685.390625 C-762.24324185 1681.02075181 -765.89939094 1676.46702964 -769.51855469 1671.80200195 C-773.11528439 1667.16919007 -776.79959988 1662.61561 -780.515625 1658.078125 C-785.81760739 1651.57941826 -790.95132025 1644.98321289 -795.890625 1638.203125 C-796.36967285 1637.54618652 -796.8487207 1636.88924805 -797.34228516 1636.21240234 C-808.83689431 1620.42208127 -820.18693791 1604.54252877 -830.890625 1588.203125 C-831.52967773 1587.23004395 -831.52967773 1587.23004395 -832.18164062 1586.23730469 C-850.2324661 1558.70645309 -866.83302715 1530.39147182 -882.24707031 1501.30224609 C-883.81572024 1498.34436698 -885.3955671 1495.3926992 -886.9765625 1492.44140625 C-894.86253009 1477.62725488 -901.9773884 1462.49234851 -908.890625 1447.203125 C-909.60798828 1445.62144531 -909.60798828 1445.62144531 -910.33984375 1444.0078125 C-934.89690076 1389.66586561 -954.40443765 1333.0325675 -968.890625 1275.203125 C-969.0764917 1274.46505615 -969.2623584 1273.7269873 -969.45385742 1272.96655273 C-980.5709885 1228.76048186 -988.50565375 1183.86843324 -993.578125 1138.578125 C-993.72343155 1137.31411362 -993.72343155 1137.31411362 -993.87167358 1136.02456665 C-997.87569006 1100.78189064 -999.40859782 1065.42413928 -999.28173828 1029.97363281 C-999.26464819 1025.16500959 -999.27485164 1020.35688516 -999.29206085 1015.54827881 C-999.39852722 980.33520233 -997.6410977 945.2003769 -993.640625 910.203125 C-993.53835602 909.28561462 -993.43608704 908.36810425 -993.33071899 907.42279053 C-985.93345701 841.41033602 -972.42373539 775.57240609 -951.62963867 712.44696045 C-950.848982 710.07668615 -950.07392909 707.70461592 -949.29882812 705.33251953 C-941.07725668 680.2552961 -931.96113245 655.59600697 -921.890625 631.203125 C-921.61881409 630.54411194 -921.34700317 629.88509888 -921.06695557 629.20611572 C-892.0151779 558.95322965 -854.66833149 492.09691279 -810.39697266 430.30664062 C-808.8418046 428.13495052 -807.29399683 425.95812262 -805.74609375 423.78125 C-794.51265771 408.04283582 -782.56990765 392.8943691 -770.31445312 377.94287109 C-769.03836196 376.38364173 -767.76875119 374.819114 -766.5 373.25390625 C-758.00081398 362.78278678 -749.22209819 352.57037066 -740.10546875 342.6328125 C-738.25055683 340.59797085 -736.43633702 338.53991253 -734.640625 336.453125 C-726.24999722 326.82162973 -717.39448764 317.60995994 -708.30541992 308.6394043 C-704.89443806 305.25795931 -701.71086154 301.75796917 -698.60766602 298.09008789 C-696.9019662 296.21558855 -695.12564148 294.61184139 -693.19140625 292.9765625 C-688.87909448 289.24953185 -684.87995589 285.27037251 -680.890625 281.203125 C-676.33467706 276.5581937 -671.71479221 272.09327296 -666.78369141 267.84667969 C-663.9802404 265.41273176 -661.28539154 262.86781717 -658.578125 260.328125 C-653.70476951 255.78963976 -648.68758523 251.50963703 -643.4921875 247.33984375 C-640.94075771 245.24430006 -638.50735727 243.06349345 -636.078125 240.828125 C-631.70825181 236.85050815 -627.15452964 233.19435906 -622.48950195 229.57519531 C-617.85669007 225.97846561 -613.30311 222.29415012 -608.765625 218.578125 C-602.26691826 213.27614261 -595.67071289 208.14242975 -588.890625 203.203125 C-587.90521729 202.48455322 -587.90521729 202.48455322 -586.89990234 201.75146484 C-571.10958127 190.25685569 -555.23002877 178.90681209 -538.890625 168.203125 C-538.2419043 167.77708984 -537.59318359 167.35105469 -536.92480469 166.91210938 C-509.04088786 148.62979383 -480.33341115 131.84775253 -450.890625 116.203125 C-449.89240723 115.66977539 -448.89418945 115.13642578 -447.86572266 114.58691406 C-431.48183795 105.85059123 -414.8366818 97.78791668 -397.890625 90.203125 C-396.85424896 89.73876038 -396.85424896 89.73876038 -395.79693604 89.26501465 C-317.77646074 54.36512507 -235.85698962 29.01262032 0 0 Z " fill="#27D045" transform="translate(998.890625,-0.203125)"/>
<path d="M0 0 C0.97768341 -0.00006042 1.95536682 -0.00012085 2.962677 -0.00018311 C18.06628927 0.01303669 33.01292587 0.49575068 48.05810547 1.91845703 C50.90315786 2.17864357 53.74767689 2.39178152 56.59765625 2.58984375 C71.59744023 3.68771748 86.24797983 6.32187769 101 9.1875 C102.02351563 9.38214844 103.04703125 9.57679688 104.1015625 9.77734375 C142.08785969 17.04385179 179.69094223 28.34559372 215 44.1875 C216.04269043 44.65124023 217.08538086 45.11498047 218.15966797 45.59277344 C264.8273513 66.43140787 307.95490148 93.18316091 347 126.1875 C347.65436035 126.73744629 348.3087207 127.28739258 348.98291016 127.85400391 C361.03703044 137.99352152 361.03703044 137.99352152 366.31518555 143.50341797 C368.04027154 145.22775403 369.83697904 146.8067088 371.69140625 148.390625 C375.99384624 152.13211271 380.04370938 156.08282165 384.0625 160.125 C384.73087891 160.78951172 385.39925781 161.45402344 386.08789062 162.13867188 C390.0255383 166.0839729 393.7756966 170.13897345 397.41674805 174.35913086 C399.5188642 176.78669414 401.69609684 179.14135567 403.875 181.5 C408.79507305 186.90243316 413.44355013 192.47664757 418 198.1875 C418.61198242 198.95006104 418.61198242 198.95006104 419.23632812 199.72802734 C460.07937187 250.68829834 491.48133033 308.16621504 512 370.1875 C512.26619141 370.97962891 512.53238281 371.77175781 512.80664062 372.58789062 C522.70883985 402.14407515 529.17791354 432.60445932 533.60205078 463.421875 C533.93131018 465.71012683 534.27252942 467.99589065 534.62109375 470.28125 C537.76785534 491.9426786 538.37118453 513.70615874 538.3125 535.5625 C538.31167419 536.86956909 538.31084839 538.17663818 538.30999756 539.52331543 C538.27997514 560.22993291 537.51825542 580.62801174 535 601.1875 C534.91813446 601.86732941 534.83626892 602.54715881 534.75192261 603.24758911 C526.02748086 675.65065291 502.08740836 746.40164445 465 809.1875 C464.43667969 810.14640137 463.87335937 811.10530273 463.29296875 812.09326172 C449.36838416 835.70297639 433.63127612 858.18777009 416 879.1875 C415.12885921 880.23433585 414.25776762 881.28121266 413.38671875 882.328125 C407.58036969 889.27689343 401.58743176 896.020358 395.42236328 902.65185547 C393.94985313 904.24164072 392.48761987 905.84038063 391.02734375 907.44140625 C382.787702 916.45987987 374.45442122 925.38173864 365.1484375 933.3203125 C362.96780107 935.2154838 360.84587519 937.16719074 358.72875977 939.1328125 C352.68162183 944.74219627 346.45684929 950.04997986 340 955.1875 C339.48775879 955.59935547 338.97551758 956.01121094 338.44775391 956.43554688 C291.38704764 994.26615391 238.58014891 1023.34887921 182 1044.1875 C180.87352051 1044.60515625 179.74704102 1045.0228125 178.58642578 1045.453125 C152.50415442 1055.04946913 125.86285146 1061.63701547 98.55175781 1066.546875 C95.26799829 1067.13916157 91.98927955 1067.75355316 88.7109375 1068.375 C76.58561081 1070.63080444 64.52472545 1072.08190804 52.22216797 1072.95385742 C49.95818304 1073.1557805 49.95818304 1073.1557805 47.59594727 1073.67822266 C32.68537143 1076.60340475 16.53782571 1075.47159514 1.4375 1075.5 C0.77396893 1075.50144516 0.11043785 1075.50289032 -0.57320023 1075.50437927 C-21.9040652 1075.54184394 -42.87945243 1074.69363383 -64.02197266 1071.734375 C-67.8350892 1071.20116585 -71.655255 1070.75123419 -75.48046875 1070.3125 C-129.73583908 1063.84626269 -182.55083708 1046.26279508 -231.77661133 1022.98339844 C-232.79779053 1022.50161133 -233.81896973 1022.01982422 -234.87109375 1021.5234375 C-235.76755615 1021.09595215 -236.66401855 1020.6684668 -237.58764648 1020.22802734 C-241.63786919 1018.48103319 -243.95639983 1017.88904474 -248.203125 1019.26171875 C-249.01007813 1019.51501953 -249.81703125 1019.76832031 -250.6484375 1020.02929688 C-251.50695312 1020.30837891 -252.36546875 1020.58746094 -253.25 1020.875 C-259.47016518 1022.82440335 -265.66052954 1024.66732086 -272 1026.1875 C-278.07009651 1027.65607174 -284.02866717 1029.35991026 -290 1031.1875 C-297.25132069 1033.4068436 -304.5035436 1035.34158313 -311.875 1037.125 C-316.63292854 1038.31448214 -321.31137145 1039.75263138 -326 1041.1875 C-332.58951074 1043.20257226 -339.17113704 1045.03386185 -345.86914062 1046.6550293 C-357.04971129 1049.38784222 -368.07599516 1052.73340633 -379.11328125 1055.98828125 C-389.04467473 1058.91295933 -398.95153585 1061.72765337 -409.015625 1064.16015625 C-414.59720922 1065.55555231 -420.07921118 1067.2936236 -425.57910156 1068.97680664 C-431.96924751 1070.91750401 -438.38339956 1072.55445151 -444.875 1074.125 C-449.63292062 1075.31448016 -454.31141487 1076.75250879 -459 1078.1875 C-466.25132069 1080.4068436 -473.5035436 1082.34158313 -480.875 1084.125 C-486.49267594 1085.52941899 -492.01049798 1087.27100614 -497.54516602 1088.96777344 C-504.21806451 1090.99671711 -510.92746898 1092.72779258 -517.71484375 1094.328125 C-520.94614243 1095.09461176 -520.94614243 1095.09461176 -523.69140625 1096.296875 C-526 1097.1875 -526 1097.1875 -530 1097.1875 C-528.65052003 1089.78880281 -526.81770391 1082.6028948 -524.75 1075.375 C-524.440625 1074.281875 -524.13125 1073.18875 -523.8125 1072.0625 C-522.87931659 1068.7695864 -521.94065788 1065.47828539 -521 1062.1875 C-520.60458008 1060.80232178 -520.60458008 1060.80232178 -520.20117188 1059.38916016 C-519.22726219 1055.97856912 -518.25253258 1052.568218 -517.27490234 1049.15869141 C-514.97019646 1041.11286681 -512.71681808 1033.05290247 -510.46484375 1024.9921875 C-508.69648817 1018.66540419 -506.90672501 1012.34540435 -505.09375 1006.03125 C-503.54492684 1000.58824288 -502.02349047 995.13764375 -500.5 989.6875 C-498.38709423 982.12877854 -496.25976226 974.57494788 -494.09375 967.03125 C-492.54492684 961.58824288 -491.02349047 956.13764375 -489.5 950.6875 C-485.85670732 937.65396341 -485.85670732 937.65396341 -484 931.1875 C-482.17802801 924.84174285 -480.40144682 918.48361224 -478.625 912.125 C-476.20394336 903.46070794 -473.75466937 894.80522678 -471.27441406 886.15771484 C-468.97334659 878.12231389 -466.72219079 870.07317655 -464.47363281 862.02294922 C-462.91565572 856.44790353 -461.34670162 850.87657856 -459.75 845.3125 C-459.30333984 843.73855469 -459.30333984 843.73855469 -458.84765625 842.1328125 C-458.26906472 840.12240692 -457.67185654 838.11728937 -457.05859375 836.1171875 C-456.62740234 834.66699219 -456.62740234 834.66699219 -456.1875 833.1875 C-455.93355469 832.3625 -455.67960938 831.5375 -455.41796875 830.6875 C-454.25901499 823.75544013 -457.56675165 819.16018379 -461.125 813.5625 C-485.8103999 773.44356439 -503.28276026 730.14851247 -517 685.1875 C-517.30276855 684.19733887 -517.60553711 683.20717773 -517.91748047 682.18701172 C-526.50522442 653.65060149 -531.07031941 623.58530684 -534.6875 594.0625 C-534.80697998 593.09199707 -534.92645996 592.12149414 -535.04956055 591.12158203 C-537.10968117 573.52776406 -537.24322995 556.00711782 -537.25 538.3125 C-537.25029457 537.64321598 -537.25058914 536.97393196 -537.25089264 536.28436661 C-537.25237417 515.42154434 -536.84874124 494.88559761 -534 474.1875 C-533.79383687 472.64503402 -533.58778755 471.10255283 -533.38183594 469.56005859 C-523.58939177 397.14130715 -500.485539 327.07055759 -463 264.1875 C-462.47196777 263.2991748 -461.94393555 262.41084961 -461.39990234 261.49560547 C-450.95617841 244.03227736 -439.43378105 227.29389253 -427 211.1875 C-426.58717773 210.64996094 -426.17435547 210.11242187 -425.74902344 209.55859375 C-416.24544826 197.20605636 -406.16641921 185.41050272 -395.57421875 173.98046875 C-393.22447983 171.43105551 -390.92129068 168.84744356 -388.625 166.25 C-381.28100696 158.07535784 -373.52827567 150.16372652 -365.14453125 143.05078125 C-362.83801888 141.0467623 -360.60742005 138.97465575 -358.37524414 136.88867188 C-352.12082798 131.0477185 -345.70797945 125.50793849 -339 120.1875 C-337.94519216 119.33999351 -336.89050975 118.49233088 -335.8359375 117.64453125 C-315.38296757 101.29409865 -293.70868801 86.2359202 -271 73.1875 C-269.69482422 72.43049805 -269.69482422 72.43049805 -268.36328125 71.65820312 C-201.92081416 33.23634463 -128.46233795 9.51093491 -52.0625 2 C-51.33208496 1.92813477 -50.60166992 1.85626953 -49.84912109 1.78222656 C-33.26791019 0.30786168 -16.6370553 -0.01598607 0 0 Z " fill="#27D045" transform="translate(1032,477.8125)"/>
<path d="M0 0 C0.97768341 -0.00006042 1.95536682 -0.00012085 2.962677 -0.00018311 C18.06628927 0.01303669 33.01292587 0.49575068 48.05810547 1.91845703 C50.90315786 2.17864357 53.74767689 2.39178152 56.59765625 2.58984375 C71.59744023 3.68771748 86.24797983 6.32187769 101 9.1875 C102.02351563 9.38214844 103.04703125 9.57679688 104.1015625 9.77734375 C142.08785969 17.04385179 179.69094223 28.34559372 215 44.1875 C216.04269043 44.65124023 217.08538086 45.11498047 218.15966797 45.59277344 C264.8273513 66.43140787 307.95490148 93.18316091 347 126.1875 C347.65436035 126.73744629 348.3087207 127.28739258 348.98291016 127.85400391 C361.03703044 137.99352152 361.03703044 137.99352152 366.31518555 143.50341797 C368.04027154 145.22775403 369.83697904 146.8067088 371.69140625 148.390625 C375.99384624 152.13211271 380.04370938 156.08282165 384.0625 160.125 C384.73087891 160.78951172 385.39925781 161.45402344 386.08789062 162.13867188 C390.0255383 166.0839729 393.7756966 170.13897345 397.41674805 174.35913086 C399.5188642 176.78669414 401.69609684 179.14135567 403.875 181.5 C408.79507305 186.90243316 413.44355013 192.47664757 418 198.1875 C418.61198242 198.95006104 418.61198242 198.95006104 419.23632812 199.72802734 C460.07937187 250.68829834 491.48133033 308.16621504 512 370.1875 C512.26619141 370.97962891 512.53238281 371.77175781 512.80664062 372.58789062 C522.70883985 402.14407515 529.17791354 432.60445932 533.60205078 463.421875 C533.93131018 465.71012683 534.27252942 467.99589065 534.62109375 470.28125 C537.76785534 491.9426786 538.37118453 513.70615874 538.3125 535.5625 C538.31167419 536.86956909 538.31084839 538.17663818 538.30999756 539.52331543 C538.27997514 560.22993291 537.51825542 580.62801174 535 601.1875 C534.91813446 601.86732941 534.83626892 602.54715881 534.75192261 603.24758911 C526.02748086 675.65065291 502.08740836 746.40164445 465 809.1875 C464.43667969 810.14640137 463.87335937 811.10530273 463.29296875 812.09326172 C449.36838416 835.70297639 433.63127612 858.18777009 416 879.1875 C415.12885921 880.23433585 414.25776762 881.28121266 413.38671875 882.328125 C407.58036969 889.27689343 401.58743176 896.020358 395.42236328 902.65185547 C393.94985313 904.24164072 392.48761987 905.84038063 391.02734375 907.44140625 C382.787702 916.45987987 374.45442122 925.38173864 365.1484375 933.3203125 C362.96780107 935.2154838 360.84587519 937.16719074 358.72875977 939.1328125 C352.68162183 944.74219627 346.45684929 950.04997986 340 955.1875 C339.48775879 955.59935547 338.97551758 956.01121094 338.44775391 956.43554688 C291.38704764 994.26615391 238.58014891 1023.34887921 182 1044.1875 C180.87352051 1044.60515625 179.74704102 1045.0228125 178.58642578 1045.453125 C152.50415442 1055.04946913 125.86285146 1061.63701547 98.55175781 1066.546875 C95.26799829 1067.13916157 91.98927955 1067.75355316 88.7109375 1068.375 C76.58561081 1070.63080444 64.52472545 1072.08190804 52.22216797 1072.95385742 C49.95818304 1073.1557805 49.95818304 1073.1557805 47.59594727 1073.67822266 C32.68537143 1076.60340475 16.53782571 1075.47159514 1.4375 1075.5 C0.77396893 1075.50144516 0.11043785 1075.50289032 -0.57320023 1075.50437927 C-21.9040652 1075.54184394 -42.87945243 1074.69363383 -64.02197266 1071.734375 C-67.8350892 1071.20116585 -71.655255 1070.75123419 -75.48046875 1070.3125 C-129.73583908 1063.84626269 -182.55083708 1046.26279508 -231.77661133 1022.98339844 C-232.79779053 1022.50161133 -233.81896973 1022.01982422 -234.87109375 1021.5234375 C-235.76755615 1021.09595215 -236.66401855 1020.6684668 -237.58764648 1020.22802734 C-241.63786919 1018.48103319 -243.95639983 1017.88904474 -248.203125 1019.26171875 C-249.01007813 1019.51501953 -249.81703125 1019.76832031 -250.6484375 1020.02929688 C-251.50695312 1020.30837891 -252.36546875 1020.58746094 -253.25 1020.875 C-259.47016518 1022.82440335 -265.66052954 1024.66732086 -272 1026.1875 C-278.07009651 1027.65607174 -284.02866717 1029.35991026 -290 1031.1875 C-297.25132069 1033.4068436 -304.5035436 1035.34158313 -311.875 1037.125 C-316.63292854 1038.31448214 -321.31137145 1039.75263138 -326 1041.1875 C-332.58951074 1043.20257226 -339.17113704 1045.03386185 -345.86914062 1046.6550293 C-357.04971129 1049.38784222 -368.07599516 1052.73340633 -379.11328125 1055.98828125 C-389.04467473 1058.91295933 -398.95153585 1061.72765337 -409.015625 1064.16015625 C-414.59720922 1065.55555231 -420.07921118 1067.2936236 -425.57910156 1068.97680664 C-431.96924751 1070.91750401 -438.38339956 1072.55445151 -444.875 1074.125 C-449.63292062 1075.31448016 -454.31141487 1076.75250879 -459 1078.1875 C-466.25132069 1080.4068436 -473.5035436 1082.34158313 -480.875 1084.125 C-486.49267594 1085.52941899 -492.01049798 1087.27100614 -497.54516602 1088.96777344 C-504.21806451 1090.99671711 -510.92746898 1092.72779258 -517.71484375 1094.328125 C-520.94614243 1095.09461176 -520.94614243 1095.09461176 -523.69140625 1096.296875 C-526 1097.1875 -526 1097.1875 -530 1097.1875 C-528.65052003 1089.78880281 -526.81770391 1082.6028948 -524.75 1075.375 C-524.440625 1074.281875 -524.13125 1073.18875 -523.8125 1072.0625 C-522.87931659 1068.7695864 -521.94065788 1065.47828539 -521 1062.1875 C-520.60458008 1060.80232178 -520.60458008 1060.80232178 -520.20117188 1059.38916016 C-519.22726219 1055.97856912 -518.25253258 1052.568218 -517.27490234 1049.15869141 C-514.97019646 1041.11286681 -512.71681808 1033.05290247 -510.46484375 1024.9921875 C-508.69648817 1018.66540419 -506.90672501 1012.34540435 -505.09375 1006.03125 C-503.54492684 1000.58824288 -502.02349047 995.13764375 -500.5 989.6875 C-498.38709423 982.12877854 -496.25976226 974.57494788 -494.09375 967.03125 C-492.54492684 961.58824288 -491.02349047 956.13764375 -489.5 950.6875 C-485.85670732 937.65396341 -485.85670732 937.65396341 -484 931.1875 C-482.17802801 924.84174285 -480.40144682 918.48361224 -478.625 912.125 C-476.20394336 903.46070794 -473.75466937 894.80522678 -471.27441406 886.15771484 C-468.97334659 878.12231389 -466.72219079 870.07317655 -464.47363281 862.02294922 C-462.91565572 856.44790353 -461.34670162 850.87657856 -459.75 845.3125 C-459.30333984 843.73855469 -459.30333984 843.73855469 -458.84765625 842.1328125 C-458.26906472 840.12240692 -457.67185654 838.11728937 -457.05859375 836.1171875 C-456.62740234 834.66699219 -456.62740234 834.66699219 -456.1875 833.1875 C-455.93355469 832.3625 -455.67960938 831.5375 -455.41796875 830.6875 C-454.25901499 823.75544013 -457.56675165 819.16018379 -461.125 813.5625 C-485.8103999 773.44356439 -503.28276026 730.14851247 -517 685.1875 C-517.30276855 684.19733887 -517.60553711 683.20717773 -517.91748047 682.18701172 C-526.50522442 653.65060149 -531.07031941 623.58530684 -534.6875 594.0625 C-534.80697998 593.09199707 -534.92645996 592.12149414 -535.04956055 591.12158203 C-537.10968117 573.52776406 -537.24322995 556.00711782 -537.25 538.3125 C-537.25029457 537.64321598 -537.25058914 536.97393196 -537.25089264 536.28436661 C-537.25237417 515.42154434 -536.84874124 494.88559761 -534 474.1875 C-533.79383687 472.64503402 -533.58778755 471.10255283 -533.38183594 469.56005859 C-523.58939177 397.14130715 -500.485539 327.07055759 -463 264.1875 C-462.47196777 263.2991748 -461.94393555 262.41084961 -461.39990234 261.49560547 C-450.95617841 244.03227736 -439.43378105 227.29389253 -427 211.1875 C-426.58717773 210.64996094 -426.17435547 210.11242187 -425.74902344 209.55859375 C-416.24544826 197.20605636 -406.16641921 185.41050272 -395.57421875 173.98046875 C-393.22447983 171.43105551 -390.92129068 168.84744356 -388.625 166.25 C-381.28100696 158.07535784 -373.52827567 150.16372652 -365.14453125 143.05078125 C-362.83801888 141.0467623 -360.60742005 138.97465575 -358.37524414 136.88867188 C-352.12082798 131.0477185 -345.70797945 125.50793849 -339 120.1875 C-337.94519216 119.33999351 -336.89050975 118.49233088 -335.8359375 117.64453125 C-315.38296757 101.29409865 -293.70868801 86.2359202 -271 73.1875 C-269.69482422 72.43049805 -269.69482422 72.43049805 -268.36328125 71.65820312 C-201.92081416 33.23634463 -128.46233795 9.51093491 -52.0625 2 C-51.33208496 1.92813477 -50.60166992 1.85626953 -49.84912109 1.78222656 C-33.26791019 0.30786168 -16.6370553 -0.01598607 0 0 Z M-136.83837891 106.44287109 C-139.59277139 107.39169615 -142.37761821 108.21762413 -145.16796875 109.0546875 C-199.10590276 125.52357674 -251.60724776 156.31808133 -293.5078125 193.85400391 C-295.38209906 195.52896352 -297.28426716 197.17057167 -299.1875 198.8125 C-300.46126794 199.93417624 -301.73187696 201.05944578 -303 202.1875 C-303.82886719 202.92355469 -304.65773438 203.65960937 -305.51171875 204.41796875 C-311.95552825 210.22882561 -318.16666928 216.24988556 -324.3125 222.375 C-325.06515137 223.12305908 -325.81780273 223.87111816 -326.59326172 224.6418457 C-331.26684247 229.32834832 -335.70123675 234.15634992 -340 239.1875 C-340.87745813 240.19674157 -341.75505095 241.20586606 -342.6328125 242.21484375 C-381.49833374 287.5985637 -411.5823297 340.31572643 -430 397.1875 C-430.28149902 398.0434375 -430.56299805 398.899375 -430.85302734 399.78125 C-439.10620859 425.0597751 -444.68297006 450.81808188 -448 477.1875 C-448.2163208 478.87480225 -448.2163208 478.87480225 -448.43701172 480.59619141 C-453.71655883 522.23275472 -453.86616366 564.70039846 -447 606.1875 C-446.79358887 607.43966309 -446.58717773 608.69182617 -446.37451172 609.98193359 C-436.75407286 667.70023554 -416.47305163 723.17062904 -386 773.1875 C-385.52933105 773.96722168 -385.05866211 774.74694336 -384.57373047 775.55029297 C-379.78169396 783.47592305 -374.76637854 791.16313721 -369.22167969 798.58642578 C-364.84582815 804.51482514 -364.84582815 804.51482514 -364 808.1875 C-364.52405016 810.85836928 -365.13936524 813.19131109 -366 815.75 C-367.984715 821.92286384 -369.89612798 828.11364091 -371.74609375 834.328125 C-373.9673412 841.76035769 -376.20998611 849.18574184 -378.47265625 856.60546875 C-378.76659271 857.56965225 -379.06052917 858.53383575 -379.3633728 859.52723694 C-380.56521972 863.46847896 -381.76771522 867.40952242 -382.97094727 871.3503418 C-386.00689521 881.29591418 -389.03394697 891.24264973 -391.95143127 901.22367859 C-394.01907914 908.28366134 -396.13426257 915.3293065 -398.25 922.375 C-398.44119856 923.01182016 -398.63239712 923.64864033 -398.82938957 924.30475807 C-400.42012396 929.60254281 -402.01204415 934.89997108 -403.60400391 940.1973877 C-404.20480142 942.1966813 -404.80554481 944.19599116 -405.40625 946.1953125 C-405.60221268 946.84751266 -405.79817535 947.49971283 -406.00007629 948.17167664 C-407.67866502 953.75968167 -409.3519799 959.34926091 -411.02490234 964.93896484 C-411.90273211 967.86345228 -412.78778881 970.7856176 -413.67578125 973.70703125 C-414.13816638 975.24214367 -414.60042005 976.77729569 -415.0625 978.3125 C-415.44535156 979.57320312 -415.82820312 980.83390625 -416.22265625 982.1328125 C-417.16441053 985.30823495 -417.16441053 985.30823495 -417 989.1875 C-409.14569635 987.61314776 -401.61417961 985.26585569 -393.99609375 982.8125 C-392.61416677 982.37066637 -391.23212958 981.92917736 -389.84999084 981.48800659 C-386.14538879 980.30441899 -382.44237645 979.11592976 -378.73965454 977.92647552 C-374.87683989 976.68653901 -371.01254285 975.45123902 -367.1484375 974.21533203 C-357.76357194 971.21244491 -348.38142869 968.20110473 -339 965.1875 C-338.27779518 964.95552414 -337.55559036 964.72354828 -336.81150055 964.48454285 C-332.02132581 962.94587022 -327.23130447 961.40672072 -322.44140625 959.8671875 C-321.47495587 959.55656246 -321.47495587 959.55656246 -320.48898125 959.23966217 C-313.84395779 957.10374653 -307.19950738 954.96607579 -300.55639648 952.82421875 C-291.50135602 949.90620932 -282.44750906 946.99731721 -273.34521484 944.22949219 C-269.77485074 943.11736885 -266.22029415 941.96240809 -262.66629028 940.79925537 C-259.05694686 939.61837258 -255.4444163 938.44739757 -251.83178711 937.27661133 C-249.97162389 936.67098823 -248.11291121 936.06089318 -246.25561523 935.4465332 C-243.54015614 934.54962108 -240.81966002 933.66978583 -238.09765625 932.79296875 C-236.86004295 932.37751045 -236.86004295 932.37751045 -235.59742737 931.95365906 C-230.0647303 930.1950335 -226.18024112 929.76331392 -220.71191406 932.2121582 C-219.98713867 932.63327881 -219.26236328 933.05439941 -218.515625 933.48828125 C-217.67676758 933.96475098 -216.83791016 934.4412207 -215.97363281 934.93212891 C-215.07483398 935.44952637 -214.17603516 935.96692383 -213.25 936.5 C-164.80726358 963.57285791 -110.06796331 980.6410365 -55 987.1875 C-54.18354004 987.28514648 -53.36708008 987.38279297 -52.52587891 987.48339844 C-50.0807641 987.76992402 -47.63476378 988.04497925 -45.1875 988.3125 C-44.49575684 988.38823242 -43.80401367 988.46396484 -43.09130859 988.54199219 C-28.91173961 989.99176538 -14.74341144 990.42613229 -0.5 990.4375 C0.83227631 990.43901062 0.83227631 990.43901062 2.19146729 990.44055176 C105.8049168 990.36192884 205.92063502 953.40777433 302.375 874.6015625 C304.44790576 872.69522953 306.54808634 870.85359935 308.68359375 869.01953125 C313.69514493 864.64867803 318.37276258 859.96094196 323.0625 855.25 C323.92166016 854.39470703 324.78082031 853.53941406 325.66601562 852.65820312 C330.65345304 847.66314549 335.41870416 842.55567881 340 837.1875 C340.94927083 836.10437195 341.8997384 835.02229124 342.8515625 833.94140625 C379.24055088 792.22514264 406.71922236 743.96529988 426 692.1875 C426.39815918 691.13546387 426.79631836 690.08342773 427.20654297 688.99951172 C441.83093273 650.10537997 450.85230586 607.26904214 452.625 565.6875 C452.66149658 564.84823975 452.69799316 564.00897949 452.7355957 563.14428711 C454.33975596 520.47061877 452.2025738 477.31888657 441.65039062 435.78759766 C440.96732763 433.0568841 440.33232581 430.31781603 439.703125 427.57421875 C423.83707738 359.56548197 389.65293955 295.78441417 344 243.1875 C343.38898437 242.4759375 342.77796875 241.764375 342.1484375 241.03125 C340.44985482 239.06701221 338.72958635 237.12448857 337 235.1875 C336.28457031 234.37925781 335.56914063 233.57101562 334.83203125 232.73828125 C328.69397146 225.91504269 322.29214211 219.37421806 315.8125 212.875 C314.96921143 212.02711914 314.12592285 211.17923828 313.25708008 210.30566406 C308.33213531 205.39280327 303.29180805 200.70116468 298 196.1875 C296.55367187 194.9190625 296.55367187 194.9190625 295.078125 193.625 C254.59047037 158.72956286 207.75970413 132.31354429 158 113.1875 C157.14422363 112.85234375 156.28844727 112.5171875 155.40673828 112.171875 C143.75910386 107.61095577 131.99410489 104.03665297 119.87988281 100.93017578 C116.96440268 100.17832002 114.05652757 99.40099502 111.1484375 98.62109375 C97.8370019 95.10864246 84.53177812 92.61081035 70.9128418 90.62670898 C67.87386886 90.16848148 64.84594152 89.66129072 61.81640625 89.14453125 C56.95022779 88.32547151 52.09325009 87.65176121 47.1875 87.125 C46.50880859 87.04701172 45.83011719 86.96902344 45.13085938 86.88867188 C31.40601558 85.3803103 17.73014215 84.97924184 3.9375 85 C3.06295166 85.00126892 2.18840332 85.00253784 1.28735352 85.00384521 C-45.02559929 85.13091704 -93.08116308 90.42512014 -136.83837891 106.44287109 Z " fill="#FEFEFE" transform="translate(1032,477.8125)"/>
<path d="M0 0 C10.81410897 -0.25039049 21.65855771 -0.14169582 32.41650391 1.06689453 C33.71587891 1.21126953 35.01525391 1.35564453 36.35400391 1.50439453 C44.8495977 5.83888116 49.23689669 17.98574637 53.29150391 26.19189453 C53.60609558 26.82405884 53.92068726 27.45622314 54.24481201 28.10754395 C68.52158551 56.8989632 80.31869276 86.92940737 91.41650391 117.06689453 C91.77296494 118.02760361 91.77296494 118.02760361 92.1366272 119.00772095 C92.84092568 120.90957972 93.53799342 122.8139342 94.23291016 124.71923828 C94.83921265 126.37427368 94.83921265 126.37427368 95.45776367 128.06274414 C99.07025318 139.38224589 93.85224088 149.34758608 88.74072266 159.34423828 C85.49148712 165.14804521 81.75275119 170.21917652 77.57470703 175.37963867 C74.08087535 179.72993339 70.72294028 184.18213711 67.35400391 188.62939453 C66.00940764 190.40187582 64.66435932 192.17401428 63.31884766 193.94580078 C62.67544434 194.80061035 62.03204102 195.65541992 61.36914062 196.53613281 C60.0582567 198.2351354 58.70978842 199.90573724 57.32714844 201.546875 C56.35237549 202.71500732 56.35237549 202.71500732 55.35791016 203.90673828 C54.76824463 204.58986084 54.1785791 205.2729834 53.57104492 205.97680664 C52.1925874 208.02488435 52.1925874 208.02488435 52.58666992 210.49414062 C54.18740329 215.45693209 56.52840843 220.06555452 58.79150391 224.75439453 C59.32952637 225.86983643 59.86754883 226.98527832 60.421875 228.13452148 C71.32833461 250.39322187 85.46438809 270.29490242 102.16259766 288.59033203 C103.6907235 290.26941658 105.20336249 291.96270276 106.70166016 293.66845703 C110.67263788 298.17752608 114.68061708 302.36717099 119.27587891 306.23876953 C121.76417433 308.36381015 124.14517765 310.58873152 126.54150391 312.81689453 C132.35193987 318.1137008 138.46419502 322.94802801 144.69628906 327.73632812 C146.29571524 328.97346589 147.87834339 330.23223769 149.45947266 331.49267578 C176.91453251 353.19389385 222.84654314 388.16435022 259.41650391 385.06689453 C269.01855033 382.34631471 275.30580104 374.48027245 280.79150391 366.56689453 C281.34604248 365.7829834 281.90058105 364.99907227 282.47192383 364.19140625 C287.59506374 356.91134859 292.54086239 349.51425628 297.41650391 342.06689453 C313.08961959 318.1297724 313.08961959 318.1297724 320.41650391 315.06689453 C327.52161896 314.0666554 333.70895183 316.05202389 340.35400391 318.37939453 C341.39250488 318.73549805 342.43100586 319.09160156 343.50097656 319.45849609 C442.89990622 354.291998 442.89990622 354.291998 459.41650391 379.06689453 C464.04288049 398.91554244 459.13960794 421.54075777 453.04150391 440.50439453 C452.77394287 441.35001953 452.50638184 442.19564453 452.23071289 443.06689453 C450.21892372 448.91169617 447.37338533 453.34302581 443.41650391 458.06689453 C442.73845703 458.89318359 442.06041016 459.71947266 441.36181641 460.57080078 C440.76111328 461.25013672 440.16041016 461.92947266 439.54150391 462.62939453 C438.94595703 463.31130859 438.35041016 463.99322266 437.73681641 464.69580078 C409.48695434 493.56392582 373.34862473 508.89505596 333.3125 509.41162109 C302.59977657 509.66112274 276.22194472 503.04300342 247.48284912 492.79992676 C244.42085429 491.71368963 241.34933457 490.65500147 238.27978516 489.59033203 C180.64457755 469.25298585 123.79257707 437.82913337 79.28759766 395.69189453 C76.55028118 393.10402209 73.7557589 390.59525287 70.93212891 388.10205078 C64.31955876 382.17015865 58.07224944 375.8723523 51.80200195 369.58276367 C49.72605964 367.50144264 47.64479968 365.42554641 45.56298828 363.35009766 C44.21826638 362.00471515 42.87385461 360.65902259 41.52978516 359.31298828 C40.91919754 358.7044249 40.30860992 358.09586151 39.67951965 357.46885681 C35.96816492 353.73760069 32.44439238 349.88870677 29.01124573 345.89974976 C26.43688306 342.94100496 23.73219711 340.10689988 21.04150391 337.25439453 C16.39334858 332.2871636 11.97171855 327.2111342 7.71728516 321.89892578 C5.05740013 318.62487376 2.30379012 315.44191763 -0.45849609 312.25439453 C-6.39827223 305.36343197 -12.03394135 298.27395282 -17.58349609 291.06689453 C-18.18178223 290.29458496 -18.78006836 289.52227539 -19.39648438 288.7265625 C-28.62840353 276.8005487 -37.5852544 264.72261746 -46.08496094 252.26220703 C-47.01724871 250.89643126 -47.95423965 249.53383882 -48.8984375 248.17626953 C-76.20596882 208.85873761 -93.28558002 151.63278664 -85.69677734 103.80908203 C-79.95734412 72.46805072 -64.31024248 45.02981787 -42.58349609 22.06689453 C-41.43107422 20.83519531 -41.43107422 20.83519531 -40.25537109 19.57861328 C-37.76390401 16.99472081 -35.20525214 14.51840668 -32.58349609 12.06689453 C-31.87265869 11.38433594 -31.87265869 11.38433594 -31.14746094 10.68798828 C-21.37825013 1.49193012 -13.04813435 0.33785568 0 0 Z " fill="#FEFEFE" transform="translate(837.58349609375,767.93310546875)"/>
</svg>
