<?xml version="1.0" standalone="no"?>
<!DOCTYPE svg PUBLIC "-//W3C//DTD SVG 20010904//EN"
 "http://www.w3.org/TR/2001/REC-SVG-20010904/DTD/svg10.dtd">
<svg version="1.0" xmlns="http://www.w3.org/2000/svg"
 width="800.000000pt" height="800.000000pt" viewBox="0 0 800.000000 800.000000"
 preserveAspectRatio="xMidYMid meet">

<g transform="translate(0.000000,800.000000) scale(0.100000,-0.100000)"
fill="#000000" stroke="none">
<path d="M3788 6994 c-4 -3 -60 -12 -125 -20 -148 -17 -281 -42 -398 -75 -63
-18 -228 -70 -250 -79 -11 -4 -40 -15 -65 -25 -235 -91 -476 -225 -680 -379
-526 -397 -878 -884 -1075 -1488 -47 -144 -63 -205 -94 -378 -33 -176 -42
-259 -48 -417 l-6 -153 100 0 100 0 6 -137 c9 -207 55 -449 128 -670 17 -51
28 -97 24 -103 -4 -6 -38 -26 -76 -46 -39 -19 -73 -42 -76 -50 -17 -44 171
-443 299 -634 494 -740 1264 -1204 2158 -1301 151 -16 470 -13 629 5 557 66
1048 270 1501 625 114 89 359 333 454 451 162 203 327 486 420 721 25 64 46
120 46 125 0 8 -76 60 -149 104 -12 7 -7 32 27 147 69 231 102 418 118 661 l7
102 95 0 95 0 -6 158 c-2 86 -10 191 -16 232 -67 438 -138 668 -316 1020 -245
482 -635 897 -1129 1197 -174 106 -431 219 -631 277 -49 14 -103 30 -120 35
-187 58 -440 92 -725 98 -119 2 -219 1 -222 -3z m546 -139 c802 -94 1501 -491
1971 -1120 329 -439 515 -959 551 -1531 l7 -111 -89 -7 c-156 -13 -777 -76
-781 -80 -2 -2 46 -7 106 -11 120 -8 113 -4 127 -78 8 -46 16 -39 34 26 10 39
17 47 36 47 20 0 23 -6 29 -57 3 -32 9 -83 13 -113 l8 -55 21 108 c11 60 23
111 27 114 3 3 11 3 19 0 25 -9 32 -252 12 -392 -8 -55 12 -3 29 75 15 68 45
267 46 298 0 6 10 12 21 12 21 0 22 -1 16 -187 -4 -161 -17 -286 -42 -410 -5
-27 -5 -27 5 -4 36 83 110 461 110 564 0 36 1 37 35 37 32 0 34 -2 30 -27 -2
-16 -7 -77 -10 -138 -5 -108 -30 -282 -58 -400 -27 -115 -80 -285 -89 -285 -9
0 -182 67 -273 105 -22 9 -35 13 -30 8 21 -20 342 -241 388 -268 27 -15 51
-33 53 -39 5 -13 -115 -246 -185 -361 -116 -191 -279 -392 -457 -566 -439
-427 -968 -691 -1579 -790 -253 -40 -633 -37 -905 7 -903 148 -1703 742 -2119
1573 -35 68 -59 127 -54 131 4 3 85 60 178 125 159 111 277 196 300 217 6 5
-70 -29 -167 -76 -98 -46 -179 -82 -181 -78 -11 19 -59 179 -81 267 -44 181
-76 412 -76 548 0 46 1 47 30 47 20 0 30 -5 30 -14 0 -38 33 -260 50 -341 27
-123 62 -256 67 -251 2 2 -3 44 -11 92 -21 122 -36 299 -36 417 0 96 1 98 22
95 20 -3 23 -12 34 -100 13 -98 40 -247 53 -280 4 -10 5 72 3 182 l-4 200 25
0 c23 0 26 -5 41 -93 20 -111 36 -143 36 -76 0 25 3 74 6 108 7 58 8 61 34 61
23 0 28 -6 39 -51 7 -27 15 -48 18 -46 2 3 9 27 16 53 l12 49 85 9 c47 5 80
11 75 13 -6 2 -186 21 -399 42 -213 22 -390 42 -393 45 -8 8 14 282 32 401
143 942 770 1757 1645 2138 277 120 568 195 900 230 102 11 477 6 594 -8z"/>
<path d="M3907 6548 c-4 -79 -7 -204 -7 -280 l0 -136 58 -4 c31 -2 58 -4 59
-3 1 0 3 30 4 65 4 119 23 122 62 10 l28 -80 64 0 63 0 -34 95 c-38 108 -40
115 -20 115 8 0 22 10 30 22 21 30 23 274 3 302 -15 20 -112 35 -233 36 l-71
0 -6 -142z m201 -41 l3 -68 -35 -14 c-20 -8 -38 -15 -41 -15 -3 0 -5 39 -5 86
l0 85 38 -3 37 -3 3 -68z"/>
<path d="M3389 6613 c-94 -21 -116 -29 -113 -42 44 -224 109 -518 115 -525 8
-9 175 25 247 51 54 19 65 44 52 115 -20 103 -30 127 -60 145 -25 15 -28 19
-16 33 24 28 25 47 6 131 -21 91 -42 120 -89 118 -14 0 -78 -12 -142 -26z
m115 -147 c9 -45 8 -50 -13 -67 -35 -29 -48 -23 -55 24 -4 23 -9 52 -12 64 -5
17 -1 22 18 26 45 9 53 3 62 -47z m40 -183 c12 -43 17 -91 9 -95 -4 -3 -20 -8
-35 -12 -29 -7 -27 -10 -43 67 -3 16 3 27 23 39 35 21 40 21 46 1z"/>
<path d="M4468 6369 c-65 -139 -115 -255 -113 -259 3 -5 28 -14 57 -20 46 -12
53 -11 64 5 7 10 15 22 16 26 2 5 31 12 66 15 l64 7 -3 -54 -3 -54 57 -14 c31
-8 58 -13 60 -10 9 9 47 553 40 560 -8 7 -161 49 -180 49 -5 0 -61 -113 -125
-251z m177 14 c-10 -132 -10 -133 -57 -133 -22 0 -38 4 -36 8 23 57 93 212 96
212 3 0 1 -39 -3 -87z"/>
<path d="M2860 6435 c-63 -30 -116 -58 -118 -63 -3 -10 214 -481 228 -496 8
-8 250 101 250 113 0 13 -36 91 -42 91 -3 0 -36 -13 -73 -30 l-66 -30 -24 53
-23 52 59 27 c32 15 59 30 59 33 0 5 -39 86 -45 93 -2 2 -26 -8 -54 -22 -28
-14 -54 -26 -59 -26 -10 0 -54 89 -48 98 2 4 32 21 65 37 34 16 61 33 61 37 0
15 -40 88 -48 87 -4 0 -59 -24 -122 -54z"/>
<path d="M5066 6414 c-29 -52 -26 -58 37 -85 l27 -11 -100 -193 c-55 -106
-100 -197 -100 -204 0 -10 99 -66 104 -59 5 5 90 167 151 286 l58 112 42 -25
c47 -27 49 -26 80 34 9 18 13 37 8 41 -4 5 -69 40 -144 79 l-137 72 -26 -47z"/>
<path d="M5573 6137 c-11 -12 -82 -103 -158 -202 -76 -99 -144 -187 -152 -196
-12 -15 -8 -21 35 -58 l50 -41 114 148 c63 81 140 181 171 222 l57 75 -32 28
c-55 46 -63 49 -85 24z"/>
<path d="M2343 6117 c-23 -17 -42 -35 -43 -39 0 -5 225 -307 310 -416 l25 -32
97 75 c53 41 99 79 103 85 4 6 -6 28 -21 48 -15 20 -29 39 -30 40 -1 2 -28
-15 -59 -39 -32 -24 -59 -38 -64 -33 -5 5 -65 84 -135 177 -70 92 -130 167
-134 167 -4 0 -26 -15 -49 -33z"/>
<path d="M3836 5950 c-1067 -95 -1861 -1024 -1785 -2089 55 -773 549 -1435
1271 -1705 220 -82 426 -118 678 -118 319 0 603 66 875 205 584 299 975 852
1060 1502 108 827 -322 1632 -1073 2009 -304 152 -688 226 -1026 196z m429
-85 c403 -60 748 -228 1036 -503 179 -171 287 -318 395 -537 215 -438 250
-934 99 -1403 -45 -139 -168 -382 -253 -501 -80 -112 -245 -287 -351 -373
-463 -373 -1077 -507 -1656 -362 -644 163 -1164 665 -1344 1300 -48 170 -63
265 -68 456 -8 260 19 447 98 675 229 664 813 1144 1519 1248 122 18 404 18
525 0z"/>
<path d="M3751 5844 c-329 -45 -652 -183 -907 -387 -120 -97 -291 -281 -372
-400 -584 -858 -364 -2019 493 -2592 203 -136 426 -230 674 -282 116 -25 144
-27 361 -27 217 0 245 2 360 27 168 35 291 77 438 147 1064 510 1390 1847 681
2795 -394 527 -1069 808 -1728 719z m506 -59 c735 -104 1346 -672 1501 -1396
165 -764 -172 -1533 -850 -1938 -507 -304 -1174 -325 -1710 -56 -288 145 -558
390 -726 661 -325 524 -360 1175 -92 1730 86 178 197 332 349 484 154 154 272
241 441 329 190 98 372 157 564 186 124 18 397 18 523 0z"/>
<path d="M3115 4728 c-279 -562 -288 -587 -289 -793 -1 -151 7 -191 61 -301
37 -77 132 -172 211 -212 230 -114 532 -66 686 111 95 107 136 231 136 405 0
174 -49 310 -150 413 -95 97 -245 150 -368 130 -28 -4 -52 -7 -52 -5 0 2 79
161 175 355 96 193 172 355 169 360 -3 5 -82 9 -175 9 l-170 0 -234 -472z
m321 -563 c87 -25 138 -99 150 -213 12 -111 -35 -211 -119 -253 -58 -30 -159
-24 -215 13 -88 59 -124 219 -73 334 26 57 45 80 86 102 63 33 105 37 171 17z"/>
<path d="M4380 4748 c-122 -249 -233 -480 -246 -514 -56 -149 -71 -359 -35
-486 67 -233 245 -372 496 -385 346 -19 585 215 585 572 0 248 -123 453 -314
522 -63 23 -159 34 -210 24 -25 -5 -46 -5 -46 0 0 5 77 162 170 349 94 187
170 347 170 355 0 13 -26 15 -173 15 l-174 0 -223 -452z m321 -583 c90 -32
140 -117 142 -240 2 -96 -35 -174 -101 -216 -58 -37 -150 -41 -213 -9 -168 86
-150 399 26 464 53 19 93 19 146 1z"/>
<path d="M2890 2978 c40 -112 50 -154 50 -205 l0 -63 44 0 c42 0 44 1 50 38 3
20 6 52 6 70 0 19 18 84 39 145 61 174 60 157 4 157 l-48 0 -24 -78 -24 -77
-25 78 -24 77 -49 0 -49 0 50 -142z"/>
<path d="M3360 2915 l0 -205 100 0 100 0 0 40 c0 25 -5 40 -12 41 -7 1 -31 2
-53 3 -25 1 -40 6 -39 14 1 6 2 23 3 37 1 23 5 25 46 25 l45 0 0 45 0 45 -51
0 c-43 0 -50 3 -45 16 3 9 6 24 6 35 0 16 7 19 50 19 l50 0 0 45 0 45 -100 0
-100 0 0 -205z"/>
<path d="M3840 2915 l-36 -205 47 0 c40 0 49 4 54 21 6 17 57 49 79 49 3 0 6
-15 8 -32 3 -32 5 -33 51 -36 40 -3 47 0 47 15 -1 10 -16 101 -33 203 l-33
185 -74 3 -75 3 -35 -206z m124 2 c4 -38 2 -49 -10 -54 -23 -9 -26 1 -19 62 9
65 20 62 29 -8z"/>
<path d="M4340 2916 l0 -204 33 -4 c62 -7 67 -2 67 60 0 63 9 60 35 -10 16
-43 20 -46 56 -50 22 -2 44 -1 49 2 5 3 -2 36 -15 73 -25 67 -25 67 -5 87 17
17 20 34 20 113 0 134 -3 137 -136 137 l-104 0 0 -204z m140 69 c0 -34 -5 -47
-20 -55 -19 -10 -20 -8 -20 45 0 48 2 55 20 55 17 0 20 -7 20 -45z"/>
<path d="M4865 3106 c-14 -10 -20 -29 -22 -77 -5 -82 8 -104 80 -147 49 -29
57 -38 57 -64 0 -25 -4 -29 -22 -26 -18 2 -23 9 -21 31 2 26 0 27 -48 27 l-49
0 0 -48 c0 -27 7 -57 16 -70 14 -20 24 -22 103 -22 111 0 121 8 121 103 0 76
-15 99 -90 140 -33 18 -46 32 -48 51 -3 22 1 26 22 26 14 0 25 -3 25 -7 -6
-36 2 -43 46 -43 l45 0 0 48 c0 27 -7 57 -16 70 -14 20 -24 22 -98 22 -54 0
-89 -5 -101 -14z"/>
<path d="M5697 5720 c-114 -100 -207 -185 -207 -188 0 -13 61 -82 72 -82 6 0
47 32 92 72 44 40 92 81 105 92 l24 21 -13 -25 c-7 -14 -39 -73 -72 -132 -38
-68 -57 -114 -54 -125 10 -29 66 -85 79 -80 23 10 409 355 406 364 -1 4 -17
25 -35 47 l-33 39 -98 -84 c-142 -122 -142 -122 -116 -79 11 19 48 82 80 141
l60 105 -41 48 -42 47 -207 -181z"/>
<path d="M1984 5777 c-38 -45 -79 -93 -91 -108 l-22 -26 196 -169 c107 -93
204 -175 213 -182 16 -12 27 -2 108 93 l90 106 -40 37 -40 36 -53 -59 -54 -60
-40 40 -41 40 41 48 c45 52 44 58 -13 98 l-29 21 -40 -46 c-22 -25 -44 -46
-47 -46 -4 0 -24 16 -46 35 l-38 35 46 54 c25 30 46 58 46 63 0 4 -18 22 -38
40 l-39 31 -69 -81z"/>
<path d="M1678 5333 c-36 -39 -98 -167 -98 -203 0 -16 8 -38 18 -47 28 -29
387 -213 415 -213 36 0 61 26 106 110 51 95 55 149 14 178 -35 25 -109 62
-122 62 -6 0 -22 -22 -35 -48 l-24 -48 44 -27 45 -27 -16 -30 c-9 -16 -18 -30
-22 -30 -9 0 -276 140 -286 150 -5 4 -1 22 7 39 l17 31 39 -20 c22 -11 43 -20
48 -20 10 0 58 98 51 104 -17 15 -133 66 -152 66 -13 0 -35 -12 -49 -27z"/>
<path d="M6055 5265 c-99 -52 -190 -107 -203 -121 -29 -33 -24 -63 27 -158 72
-137 94 -142 240 -64 53 28 98 53 100 55 7 5 -62 143 -71 143 -5 0 -27 -9 -49
-20 -32 -17 -38 -24 -34 -43 5 -19 0 -26 -29 -40 -34 -16 -36 -16 -51 6 -8 12
-15 28 -15 37 0 15 262 160 289 160 6 0 17 -12 23 -26 11 -23 10 -29 -10 -44
-12 -10 -28 -20 -35 -23 -8 -3 -4 -20 15 -61 l28 -56 57 31 c69 38 83 54 83
91 0 28 -55 148 -92 201 -34 47 -70 38 -273 -68z"/>
<path d="M1710 4623 c-50 -19 -76 -70 -59 -120 21 -66 115 -82 159 -26 37 48
16 122 -41 142 -35 12 -37 12 -59 4z"/>
<path d="M6223 4614 c-56 -28 -67 -100 -23 -144 46 -46 122 -32 146 27 34 80
-45 156 -123 117z"/>
<path d="M1898 2894 c-34 -18 -48 -43 -48 -84 0 -43 47 -90 90 -90 43 0 90 47
90 90 0 42 -15 67 -50 85 -36 18 -47 18 -82 -1z"/>
<path d="M6018 2895 c-53 -30 -64 -95 -24 -142 32 -37 93 -39 130 -4 74 70
-18 195 -106 146z"/>
<path d="M5688 2665 c-16 -18 -28 -37 -28 -42 0 -4 15 -31 33 -58 18 -28 44
-67 56 -88 l24 -38 -101 50 -101 51 -30 -37 c-17 -21 -27 -40 -23 -44 4 -4 80
-41 170 -83 130 -60 175 -86 224 -130 34 -31 65 -56 69 -56 9 0 59 59 59 70 0
5 -28 33 -62 63 -51 45 -81 85 -158 216 -52 88 -97 160 -100 160 -3 0 -17 -15
-32 -34z"/>
<path d="M2140 2484 c-118 -79 -216 -148 -218 -152 -1 -4 11 -23 26 -42 29
-34 30 -34 55 -17 24 16 28 15 72 -4 45 -20 46 -21 31 -42 -40 -55 -41 -65
-11 -97 16 -17 32 -30 36 -30 7 0 316 378 332 405 6 11 -7 31 -44 70 -29 30
-55 55 -58 54 -3 0 -103 -65 -221 -145z m129 -66 c-34 -40 -65 -77 -69 -81 -7
-8 -60 11 -60 22 1 7 172 129 183 130 4 1 -20 -32 -54 -71z"/>
<path d="M2420 2189 l-163 -212 34 -28 c19 -16 36 -29 39 -29 3 0 41 47 85
104 44 57 81 103 82 102 1 -1 -19 -60 -46 -132 l-48 -129 31 -27 c17 -15 36
-27 43 -28 6 0 84 93 172 208 l161 207 -30 28 c-17 15 -35 27 -40 27 -5 0 -46
-47 -91 -105 -45 -58 -83 -105 -85 -105 -2 0 6 24 17 53 54 136 79 203 79 213
0 10 -61 64 -73 64 -2 0 -77 -95 -167 -211z"/>
<path d="M5342 2328 c-45 -35 -81 -69 -79 -75 3 -16 318 -413 328 -413 11 0
69 50 69 60 0 4 -19 31 -41 59 -24 30 -38 56 -33 61 5 4 38 -11 74 -35 l64
-43 38 30 c21 16 36 33 33 37 -2 5 -38 30 -78 57 -70 45 -74 50 -73 84 1 36
-43 103 -133 203 -48 53 -71 50 -169 -25z m142 -102 c38 -47 43 -65 25 -97
-10 -19 -14 -16 -59 42 -46 59 -48 65 -33 81 9 10 19 18 23 18 4 0 24 -20 44
-44z"/>
<path d="M2814 2032 c-42 -81 -99 -188 -126 -239 l-49 -92 40 -20 c22 -12 42
-21 45 -21 2 0 31 50 63 111 32 61 59 105 61 97 1 -7 -8 -66 -21 -130 -18 -85
-21 -120 -13 -127 17 -13 78 -43 80 -39 7 8 246 468 246 473 0 2 -18 14 -39
25 l-39 20 -25 -43 c-13 -23 -43 -79 -67 -125 -23 -45 -44 -81 -45 -80 -2 2
10 66 26 143 32 155 34 146 -33 181 l-26 14 -78 -148z"/>
<path d="M5040 2129 c-30 -16 -59 -34 -64 -39 -4 -4 -1 -30 7 -57 20 -64 158
-447 164 -453 2 -2 24 6 48 19 41 22 43 24 33 51 -8 26 -6 34 23 69 l32 41 29
-40 29 -40 42 21 c23 12 43 23 45 24 5 4 -319 435 -327 435 -3 0 -31 -14 -61
-31z m124 -209 c25 -35 46 -69 46 -75 0 -5 -8 -20 -18 -33 -18 -23 -18 -23
-55 78 -51 138 -51 139 27 30z"/>
<path d="M3245 1988 c-34 -89 -165 -474 -165 -483 0 -7 20 -19 45 -27 25 -9
45 -14 45 -13 0 0 38 110 85 243 47 133 85 248 85 256 0 7 -17 18 -39 24 -48
15 -51 15 -56 0z"/>
<path d="M4685 1974 c-76 -27 -95 -43 -95 -85 0 -36 44 -157 64 -178 9 -9 53
-27 98 -41 77 -24 83 -28 92 -59 7 -25 6 -35 -5 -42 -27 -17 -47 -9 -58 21
-11 34 -11 34 -62 18 -43 -12 -44 -22 -8 -105 27 -65 51 -71 148 -38 112 37
120 51 91 147 -37 121 -39 124 -134 153 -87 27 -99 34 -111 74 -14 47 47 58
64 11 11 -34 18 -36 66 -16 l34 15 -20 60 c-20 60 -48 91 -79 91 -8 -1 -46
-12 -85 -26z"/>
<path d="M3437 1908 c-5 -28 -22 -409 -22 -488 0 -23 6 -26 77 -41 68 -15 78
-15 83 -1 15 39 164 460 169 478 7 23 -13 34 -66 34 -20 0 -28 -7 -38 -32 -6
-18 -34 -98 -61 -178 -28 -80 -53 -147 -56 -150 -3 -3 -2 84 2 192 l8 197 -29
6 c-16 4 -36 9 -45 11 -12 3 -18 -4 -22 -28z"/>
<path d="M4287 1885 c-43 -7 -81 -15 -83 -18 -3 -2 12 -122 33 -266 l37 -261
26 0 c14 0 35 3 48 6 23 6 23 9 17 79 -5 45 -3 75 3 79 5 3 25 -28 43 -69 l34
-74 40 6 c22 3 43 9 48 13 4 3 -10 44 -32 90 l-39 83 20 28 c20 27 20 29 3
145 -26 184 -30 187 -198 159z m96 -163 c8 -56 7 -65 -10 -77 -33 -26 -41 -17
-48 56 -6 55 -4 73 6 80 31 20 44 5 52 -59z"/>
<path d="M3846 1828 c-3 -24 -7 -145 -10 -270 l-4 -228 114 0 114 0 0 50 0 50
-60 0 -60 0 0 61 0 60 53 -3 52 -3 3 53 3 52 -55 0 -56 0 0 55 0 55 65 0 65 0
0 55 0 55 -109 0 -110 0 -5 -42z"/>
</g>
</svg>
