<?xml version="1.0" encoding="UTF-8"?>
<svg version="1.1" xmlns="http://www.w3.org/2000/svg" width="256" height="256">
<path d="M0 0 C49.83 0 99.66 0 151 0 C151 0.99 151 1.98 151 3 C152.65 3 154.3 3 156 3 C156 2.01 156 1.02 156 0 C158.31 0 160.62 0 163 0 C163 19.14 163 38.28 163 58 C161.35 58 159.7 58 158 58 C158 59.65 158 61.3 158 63 C159.65 63 161.3 63 163 63 C163 67.62 163 72.24 163 77 C161.35 77 159.7 77 158 77 C158 118.58 158 160.16 158 203 C162.95 203 167.9 203 173 203 C173.39309233 210.07566189 173.2115362 215.14047137 169 221 C163.18364498 226.94854491 157.06469613 229.1156897 148.92871094 229.38095093 C146.53066334 229.39868734 144.13245898 229.40001973 141.734375 229.38818359 C140.41957153 229.39344055 139.10476807 229.39869751 137.75012207 229.40411377 C134.16331076 229.41772327 130.57675999 229.41251531 126.98994446 229.40297651 C123.22473482 229.39534671 119.45954652 229.40243471 115.69433594 229.40713501 C109.37300641 229.41258294 103.05178226 229.40542632 96.73046875 229.39111328 C89.43677703 229.37478857 82.14333696 229.38007776 74.84965134 229.3965925 C68.57168814 229.41023491 62.29380042 229.4121136 56.01582718 229.40427649 C52.27316416 229.39961507 48.53061916 229.39893272 44.78796387 229.40888596 C40.61370091 229.41921289 36.43986736 229.4048734 32.265625 229.38818359 C30.42007019 229.39729263 30.42007019 229.39729263 28.53723145 229.40658569 C19.31211671 229.338355 12.42627579 228.00860574 5.47265625 221.609375 C-0.39789597 215.1938113 -0.14472208 207.46651501 -0.09765625 199.32421875 C-0.0962413 198.3990596 -0.09482635 197.47390045 -0.09336853 196.52070618 C-0.08778715 193.57627073 -0.07523805 190.63191233 -0.0625 187.6875 C-0.05748259 185.68685006 -0.05292011 183.68619892 -0.04882812 181.68554688 C-0.03782381 176.79033506 -0.02057198 171.89518058 0 167 C0.99 167 1.98 167 3 167 C2.67 162.71 2.34 158.42 2 154 C-1.45183522 155.91825612 -4.9027487 157.83804706 -8.3515625 159.76171875 C-10.09539159 160.73350016 -11.84065285 161.70271016 -13.5859375 162.671875 C-14.69453125 163.290625 -15.803125 163.909375 -16.9453125 164.546875 C-18.46922607 165.39523926 -18.46922607 165.39523926 -20.02392578 166.26074219 C-23.09842875 167.97574816 -23.09842875 167.97574816 -26.06591797 170.34082031 C-29 172 -29 172 -31.55541992 171.42285156 C-32.36213135 170.95331055 -33.16884277 170.48376953 -34 170 C-34.81895752 169.57428711 -35.63791504 169.14857422 -36.48168945 168.70996094 C-37.78432739 167.9795459 -37.78432739 167.9795459 -39.11328125 167.234375 C-40.11681641 166.67234375 -41.12035156 166.1103125 -42.15429688 165.53125 C-43.19650391 164.9434375 -44.23871094 164.355625 -45.3125 163.75 C-46.28123047 163.20859375 -47.24996094 162.6671875 -48.24804688 162.109375 C-50.44029436 160.87786795 -52.61122106 159.60801404 -54.76538086 158.31103516 C-58.10964758 156.37332197 -61.54152713 154.95039656 -65.12719727 153.51318359 C-81.12598188 146.55070549 -81.12598188 146.55070549 -84.34078979 138.74414062 C-86.25756131 129.95991194 -85.89530539 121.21622694 -85.40570068 112.30059814 C-85.28101368 109.39000996 -85.29497197 106.4869132 -85.31120014 103.57422066 C-85.31545628 100.74791104 -85.25261274 97.92627072 -85.1679287 95.10134506 C-85.11459062 93.11897666 -85.10102157 91.13566443 -85.0884552 89.15261841 C-84.7413639 83.63640556 -84.43715096 80.29243246 -80.21351624 76.49411011 C-76.97215 74.33682756 -73.51763022 72.66281867 -70 71 C-68.69513886 70.25504341 -67.39683346 69.49815651 -66.11254883 68.71826172 C-65.07122803 68.12803223 -64.02990723 67.53780273 -62.95703125 66.9296875 C-62.37765305 66.6001004 -61.79827484 66.27051331 -61.20133972 65.93093872 C-59.40627535 64.910133 -57.60954848 63.89230804 -55.8125 62.875 C-54.01072634 61.85340333 -52.20936528 60.83109974 -50.40890503 59.80718994 C-48.68117457 58.82550793 -46.95120562 57.84776892 -45.22119141 56.87011719 C-41.45945051 54.68617484 -37.80815772 52.35205509 -34.19018555 49.93798828 C-31.30578256 48.70268828 -29.9633738 49.0384843 -27 50 C-25.20860949 50.86742269 -23.45155047 51.80784692 -21.7265625 52.80078125 C-20.7365625 53.36603516 -19.7465625 53.93128906 -18.7265625 54.51367188 C-17.70304687 55.10728516 -16.67953125 55.70089844 -15.625 56.3125 C-14.60921875 56.89451172 -13.5934375 57.47652344 -12.546875 58.07617188 C-9.69452709 59.71164149 -6.84706889 61.35536451 -4 63 C-1.66827788 64.33618335 0.66564004 65.66842847 3 67 C3 63.7 3 60.4 3 57 C2.01 57 1.02 57 0 57 C0 38.19 0 19.38 0 0 Z " fill="#FDFDFD" transform="translate(83,14)"/>
<path d="M0 0 C2.50439453 1.19580078 2.50439453 1.19580078 5.1328125 2.6953125 C6.59074219 3.52289063 6.59074219 3.52289063 8.078125 4.3671875 C9.08359375 4.94726562 10.0890625 5.52734375 11.125 6.125 C12.59839844 6.9603125 12.59839844 6.9603125 14.1015625 7.8125 C19.82217957 11.07927343 25.48003123 14.40966407 30.91430664 18.13793945 C33.40752363 19.64247035 35.47908274 20.59795873 38.16967773 21.59448242 C42.973577 23.5841752 46.98215307 25.64045298 50 30 C52.75038299 38.42157158 52.44146492 47.44436036 52.25073242 56.2121582 C52.17625431 59.73534994 52.26151129 63.23445066 52.38706779 66.75540733 C53.01700938 87.21967147 53.01700938 87.21967147 48.16705322 93.29669189 C43.72827352 96.97541073 38.84699622 99.04247814 33.46600342 100.97935486 C29.99518898 102.41587756 27.08501544 104.44669368 24.01670837 106.59138489 C21.49441502 108.35313715 18.87320746 109.88199424 16.1953125 111.39453125 C15.20015625 111.95720703 14.205 112.51988281 13.1796875 113.09960938 C12.17164062 113.66486328 11.16359375 114.23011719 10.125 114.8125 C9.09375 115.39708984 8.0625 115.98167969 7 116.58398438 C-0.60644069 120.86881356 -0.60644069 120.86881356 -4 122 C-6.31469727 120.97460938 -6.31469727 120.97460938 -9.06640625 119.34375 C-10.11248047 118.73144531 -11.15855469 118.11914062 -12.23632812 117.48828125 C-13.33396484 116.83214844 -14.43160156 116.17601562 -15.5625 115.5 C-17.66760715 114.25980269 -19.77309848 113.02025733 -21.87890625 111.78125 C-22.44437164 111.44657715 -23.00983704 111.1119043 -23.59243774 110.76708984 C-30.33281845 106.78333385 -37.1188923 102.8785051 -43.90234375 98.96875 C-44.7983388 98.45230675 -44.7983388 98.45230675 -45.71243477 97.9254303 C-49.14112548 95.94942214 -52.57034843 93.97433991 -56 92 C-56.3021629 83.92461341 -56.53263574 75.85161105 -56.67355824 67.7719574 C-56.74122496 64.01927163 -56.83283468 60.2704691 -56.98071289 56.52001953 C-57.12273415 52.89512622 -57.19983094 49.27394587 -57.23340416 45.64648438 C-57.25729888 44.26812214 -57.30397721 42.88994837 -57.37449074 41.51318359 C-57.59351133 37.05664902 -57.52102695 33.21614407 -56 29 C-52.05380504 25.33671949 -47.85707639 23.24973746 -43 21 C-41.6941567 20.2567664 -40.39552711 19.50030368 -39.11254883 18.71826172 C-38.07122803 18.12803223 -37.02990723 17.53780273 -35.95703125 16.9296875 C-35.37765305 16.6001004 -34.79827484 16.27051331 -34.20133972 15.93093872 C-32.40627535 14.910133 -30.60954848 13.89230804 -28.8125 12.875 C-27.01072634 11.85340333 -25.20936528 10.83109974 -23.40890503 9.80718994 C-21.68117457 8.82550793 -19.95120562 7.84776892 -18.22119141 6.87011719 C-14.45945051 4.68617484 -10.80815772 2.35205509 -7.19018555 -0.06201172 C-4.31012167 -1.29545341 -2.9588873 -0.95570781 0 0 Z " fill="#060404" transform="translate(56,64)"/>
<path d="M0 0 C49.83 0 99.66 0 151 0 C151 0.99 151 1.98 151 3 C152.65 3 154.3 3 156 3 C156 2.01 156 1.02 156 0 C158.31 0 160.62 0 163 0 C163 19.14 163 38.28 163 58 C161.35 58 159.7 58 158 58 C158 59.65 158 61.3 158 63 C159.65 63 161.3 63 163 63 C163 67.62 163 72.24 163 77 C161.35 77 159.7 77 158 77 C158 118.58 158 160.16 158 203 C162.95 203 167.9 203 173 203 C173.39309233 210.07566189 173.2115362 215.14047137 169 221 C163.18364498 226.94854491 157.06469613 229.1156897 148.92871094 229.38095093 C146.53066334 229.39868734 144.13245898 229.40001973 141.734375 229.38818359 C140.41957153 229.39344055 139.10476807 229.39869751 137.75012207 229.40411377 C134.16331076 229.41772327 130.57675999 229.41251531 126.98994446 229.40297651 C123.22473482 229.39534671 119.45954652 229.40243471 115.69433594 229.40713501 C109.37300641 229.41258294 103.05178226 229.40542632 96.73046875 229.39111328 C89.43677703 229.37478857 82.14333696 229.38007776 74.84965134 229.3965925 C68.57168814 229.41023491 62.29380042 229.4121136 56.01582718 229.40427649 C52.27316416 229.39961507 48.53061916 229.39893272 44.78796387 229.40888596 C40.61370091 229.41921289 36.43986736 229.4048734 32.265625 229.38818359 C30.42007019 229.39729263 30.42007019 229.39729263 28.53723145 229.40658569 C19.31211671 229.338355 12.42627579 228.00860574 5.47265625 221.609375 C-0.39789597 215.1938113 -0.14472208 207.46651501 -0.09765625 199.32421875 C-0.0962413 198.3990596 -0.09482635 197.47390045 -0.09336853 196.52070618 C-0.08778715 193.57627073 -0.07523805 190.63191233 -0.0625 187.6875 C-0.05748259 185.68685006 -0.05292011 183.68619892 -0.04882812 181.68554688 C-0.03782381 176.79033506 -0.02057198 171.89518058 0 167 C2.31 167.33 4.62 167.66 7 168 C7.01458252 169.24088379 7.02916504 170.48176758 7.04418945 171.76025391 C7.10230723 176.37870621 7.17953947 180.99667784 7.26245117 185.61474609 C7.29563713 187.61076029 7.32368868 189.60686689 7.34643555 191.60302734 C7.38009793 194.4779384 7.43241977 197.35200743 7.48828125 200.2265625 C7.49467117 201.11429352 7.5010611 202.00202454 7.50764465 202.91665649 C7.62749097 208.00507939 8.17166641 211.59867357 11 216 C15.358389 219.93318031 17.96050982 221.31865018 23.90625 221.2109375 C28.57884754 220.74019073 31.26991582 218.8287442 34.3125 215.375 C36.60549882 211.27515052 36.60549882 211.27515052 37 203 C72.31 203 107.62 203 144 203 C144 138.32 144 73.64 144 7 C98.79 7 53.58 7 7 7 C7 23.17 7 39.34 7 56 C3.535 56.495 3.535 56.495 0 57 C0 38.19 0 19.38 0 0 Z " fill="#0F0F0F" transform="translate(83,14)"/>
<path d="M0 0 C3.0625 0.5 3.0625 0.5 5.3125 2.375 C8.73895897 5.02271829 11.53620061 5.33914795 15.7578125 5.91015625 C18.45037913 6.59927076 19.45574456 7.24436256 21.0625 9.5 C21.3984375 11.55078125 21.3984375 11.55078125 21.4375 13.8125 C21.69175479 17.38362406 22.19817026 19.1024268 24.6875 21.6875 C27.0625 24.5 27.0625 24.5 27.125 27.5625 C26.0625 30.5 26.0625 30.5 24.125 32.75 C21.53567177 36.20243764 21.25613758 39.07304666 20.75 43.29296875 C20.523125 44.02128906 20.29625 44.74960938 20.0625 45.5 C18.7425 46.16 17.4225 46.82 16.0625 47.5 C15.7325 58.39 15.4025 69.28 15.0625 80.5 C11.4325 78.52 7.8025 76.54 4.0625 74.5 C-1.48307602 73.3908848 -2.06173099 73.69206803 -6.625 76.4375 C-11.7803246 79.5 -11.7803246 79.5 -13.9375 79.5 C-13.9375 68.94 -13.9375 58.38 -13.9375 47.5 C-15.2575 47.17 -16.5775 46.84 -17.9375 46.5 C-20.3336874 44.1038126 -20.14474578 43.50734112 -20.25 40.25 C-20.54449351 36.71041455 -21.05489966 34.90183379 -23.5 32.3125 C-25.9375 29.5 -25.9375 29.5 -26.5625 26.4375 C-25.9375 23.5 -25.9375 23.5 -23.5 21.1875 C-20.70396162 18.2550695 -20.61124899 17.74235211 -20.375 13.9375 C-20.16895262 10.91714694 -20.03080039 9.65550066 -18.4375 7 C-15.26660906 5.09746544 -12.68150793 5.07914569 -9.04296875 4.84765625 C-5.04641199 4.18774242 -4.13146559 0.70322819 0 0 Z " fill="#070605" transform="translate(195.9375,27.5)"/>
<path d="M0 0 C8.29434943 4.02259336 16.31243462 8.37811839 24.25 13.0625 C25.27351563 13.66126953 26.29703125 14.26003906 27.3515625 14.87695312 C30.24193387 16.57291011 33.12854549 18.27218313 36 20 C36.69375732 20.30337784 37.38751465 20.60675568 38.10229492 20.91932678 C40.47346196 22.07857387 42.16519942 23.09420787 44 25 C45.11339661 28.81446424 44.93379451 32.48055227 44.78125 36.42578125 C44.76993042 37.52850876 44.75861084 38.63123627 44.74694824 39.76737976 C44.70221804 43.28419862 44.60185222 46.79691702 44.5 50.3125 C44.4598691 52.69850877 44.42336766 55.08458154 44.390625 57.47070312 C44.30249425 63.31519747 44.16868959 69.15730587 44 75 C40.02615263 73.52325103 36.45233977 71.65281452 32.7734375 69.55078125 C32.18511139 69.21507614 31.59678528 68.87937103 30.9906311 68.53349304 C29.7475759 67.82313322 28.50543463 67.11117198 27.26416016 66.39770508 C24.79416135 64.9788443 22.31837636 63.5702292 19.84178162 62.16291809 C18.627928 61.46222263 17.42179824 60.74797604 16.22377014 60.02055359 C13.41075708 58.31701159 10.77798739 56.92082501 7.67358398 55.8137207 C3.9614683 54.28991921 2.31281908 53.31985905 0 50 C-1.85318886 41.72254258 -1.02478949 32.96812434 -0.6875 24.5625 C-0.63229992 22.18565921 -0.58211387 19.80869632 -0.53710938 17.43164062 C-0.41612201 11.61842435 -0.23231821 5.80977507 0 0 Z " fill="#EF7751" transform="translate(6,101)"/>
<path d="M0 0 C2.31 0 4.62 0 7 0 C7 19.14 7 38.28 7 58 C5.35 58 3.7 58 2 58 C2 59.65 2 61.3 2 63 C3.65 63 5.3 63 7 63 C7 67.62 7 72.24 7 77 C5.35 77 3.7 77 2 77 C2 118.58 2 160.16 2 203 C-0.31 203 -2.62 203 -5 203 C-5 137 -5 71 -5 3 C-3.35 3 -1.7 3 0 3 C0 2.01 0 1.02 0 0 Z " fill="#FEFEFE" transform="translate(239,14)"/>
<path d="M0 0 C40.59 0 81.18 0 123 0 C120.79605665 6.61183005 120.22018912 7.27129348 115 11 C112.08071078 11.97309641 110.23449736 12.12350964 107.19746399 12.12025452 C105.71459396 12.12231651 105.71459396 12.12231651 104.20176697 12.12442017 C102.5768911 12.11902725 102.5768911 12.11902725 100.91918945 12.11352539 C99.77758362 12.11367142 98.63597778 12.11381744 97.45977783 12.1139679 C93.67759313 12.11326993 89.89545737 12.10548291 86.11328125 12.09765625 C83.4944003 12.09579166 80.875519 12.09436795 78.25663757 12.09336853 C72.06247633 12.09025953 65.86833273 12.08205194 59.67417926 12.07201904 C52.62225115 12.06084454 45.5703222 12.05534408 38.51838744 12.05032361 C24.01224919 12.03986898 9.50612484 12.02227786 -5 12 C-4.72285156 11.46890625 -4.44570312 10.9378125 -4.16015625 10.390625 C-3.79792969 9.68421875 -3.43570313 8.9778125 -3.0625 8.25 C-2.52302734 7.20585937 -2.52302734 7.20585937 -1.97265625 6.140625 C-0.81077044 3.75454457 -0.81077044 3.75454457 0 0 Z " fill="#9CBFD0" transform="translate(126,224)"/>
<path d="M0 0 C2.31289806 1.15644903 4.60213585 2.32724775 6.875 3.5625 C9.98467949 4.99295257 12.61772053 5.59734768 16 6 C16.14695312 6.87011719 16.14695312 6.87011719 16.296875 7.7578125 C17.31879515 13.09646432 18.68373256 16.68885232 22 21 C21.195625 21.639375 20.39125 22.27875 19.5625 22.9375 C16.24587237 26.90127449 16.12047418 29.97294083 16 35 C15.39671875 35.02578125 14.7934375 35.0515625 14.171875 35.078125 C8.88118365 35.45359342 6.64374819 35.9513909 3 40 C0.35382828 39.91730713 -0.74930077 39.21488505 -2.75 37.5 C-6.06401563 35.29065625 -9.05378934 35.32885089 -13 35 C-13.0928125 33.205625 -13.0928125 33.205625 -13.1875 31.375 C-13.74912287 26.59269617 -15.68994551 24.39492769 -19 21 C-17.92334707 18.76387469 -16.80426294 16.70247967 -15.4375 14.625 C-13.8441333 11.71537386 -13.38083701 9.27519826 -13 6 C-12.39671875 5.90203125 -11.7934375 5.8040625 -11.171875 5.703125 C-6.29421718 4.79053096 -3.16176612 4.12404277 0 0 Z " fill="#EF7953" transform="translate(195,34)"/>
<path d="M0 0 C16.83 0 33.66 0 51 0 C51 6.27 51 12.54 51 19 C34.17 19 17.34 19 0 19 C0 12.73 0 6.46 0 0 Z " fill="#7997A6" transform="translate(165,140)"/>
<path d="M0 0 C16.83 0 33.66 0 51 0 C51 5.94 51 11.88 51 18 C50 19 50 19 47.98155212 19.12025452 C47.09552811 19.11803391 46.20950409 19.11581329 45.29663086 19.11352539 C44.29566879 19.11344986 43.29470673 19.11337433 42.26341248 19.11329651 C41.1748848 19.10813522 40.08635712 19.10297394 38.96484375 19.09765625 C37.85645645 19.0962413 36.74806915 19.09482635 35.60609436 19.09336853 C32.04986931 19.08775033 28.49370617 19.07519475 24.9375 19.0625 C22.53320403 19.05748734 20.12890708 19.05292403 17.72460938 19.04882812 C11.81638223 19.03777499 5.90820163 19.02049816 0 19 C0 12.73 0 6.46 0 0 Z " fill="#85A7B9" transform="translate(165,180)"/>
<path d="M0 0 C16.83 0 33.66 0 51 0 C51 3.96 51 7.92 51 12 C34.17 12 17.34 12 0 12 C0 8.04 0 4.08 0 0 Z " fill="#D0E1E9" transform="translate(103,62)"/>
<path d="M0 0 C3.0380503 1.50858751 5.98420025 3.11904223 8.92651367 4.80761719 C9.81256035 5.31473236 9.81256035 5.31473236 10.71650696 5.83209229 C11.96372864 6.54670405 13.21006679 7.26285981 14.45556641 7.98046875 C16.32748255 9.05894689 18.20191079 10.13293744 20.0769043 11.20605469 C26.9865856 15.1673992 33.85612244 19.19007501 40.66479492 23.32324219 C39.46735558 26.9155602 37.87720631 27.70106263 34.74682617 29.65136719 C30.84112982 30.911742 27.40553886 29.6762031 23.80322266 27.9597168 C22.82812744 27.38745361 21.85303223 26.81519043 20.84838867 26.22558594 C19.75961426 25.59209229 18.67083984 24.95859863 17.54907227 24.3059082 C16.39996324 23.62449512 15.2510403 22.94276813 14.10229492 22.26074219 C12.93031919 21.57380127 11.75795491 20.88752283 10.58520508 20.2019043 C2.87901763 15.6849084 -4.78945205 11.10425574 -12.33520508 6.32324219 C-9.15720687 2.98152892 -4.86857974 -1.41094648 0 0 Z " fill="#F8AA9B" transform="translate(22.335205078125,89.6767578125)"/>
<path d="M0 0 C2.71966444 1.29158106 5.32465847 2.75587676 7.9375 4.25 C8.70368652 4.6816748 9.46987305 5.11334961 10.25927734 5.55810547 C20.25794736 11.22461684 30.13129519 17.11101507 40 23 C36.85499512 26.20271644 34.10395247 28.08953937 30 30 C25.37654846 28.71030036 21.16732222 25.9698621 17 23.625 C16.23123535 23.19525879 15.4624707 22.76551758 14.67041016 22.32275391 C5.07713296 16.94630185 -4.46324986 11.47590381 -14 6 C-14 5.34 -14 4.68 -14 4 C-12.61518672 3.12808053 -11.21654754 2.27809616 -9.8125 1.4375 C-8.64654297 0.72400391 -8.64654297 0.72400391 -7.45703125 -0.00390625 C-4.32435942 -1.27390834 -3.19714879 -1.08888401 0 0 Z " fill="#F7AA9A" transform="translate(56,72)"/>
<path d="M0 0 C0.25391045 7.01011622 0.42880663 14.01904562 0.54931641 21.03271484 C0.59955531 23.41728009 0.66776266 25.80153803 0.75439453 28.18505859 C0.87596937 31.61632971 0.93245546 35.04352831 0.9765625 38.4765625 C1.02817535 39.53928375 1.07978821 40.602005 1.13296509 41.69692993 C1.13528972 44.77645079 1.04254021 47.09803309 0 50 C-2.76605116 52.50805888 -7.04265594 56 -11 56 C-11.22852429 48.98973385 -11.38593408 41.98042959 -11.49438477 34.96728516 C-11.53959816 32.5828055 -11.60098271 30.19857472 -11.67895508 27.81494141 C-11.78836778 24.38381619 -11.83921548 20.95599088 -11.87890625 17.5234375 C-11.92535782 16.46071625 -11.97180939 15.397995 -12.01966858 14.30307007 C-12.02459463 7.05228299 -12.02459463 7.05228299 -9.00680542 3.95294189 C-3.24985522 0 -3.24985522 0 0 0 Z " fill="#F27952" transform="translate(67,120)"/>
<path d="M0 0 C0 16.5 0 33 0 50 C-9 55 -9 55 -11 55 C-11 38.5 -11 22 -11 5 C-2 0 -2 0 0 0 Z " fill="#EF7751" transform="translate(99,102)"/>
<path d="M0 0 C0.17756865 7.02883106 0.30010649 14.05708363 0.38452148 21.08764648 C0.41971199 23.47881687 0.46747246 25.86983677 0.52807617 28.26049805 C0.61305142 31.69878236 0.65270357 35.13507564 0.68359375 38.57421875 C0.71972275 39.64210129 0.75585175 40.70998383 0.79307556 41.81022644 C0.79690403 49.0560664 0.79690403 49.0560664 -1.53463745 51.81777954 C-3.99763697 53.64412332 -5.88423694 55 -9 55 C-9.2029322 47.97128666 -9.34297319 40.94332858 -9.43945312 33.91235352 C-9.47967197 31.52111585 -9.5342568 29.13007476 -9.60351562 26.73950195 C-9.70063345 23.30110233 -9.74594306 19.86530252 -9.78125 16.42578125 C-9.82254028 15.35789871 -9.86383057 14.29001617 -9.90637207 13.18977356 C-9.91076178 5.92023214 -9.91076178 5.92023214 -7.20092773 3.18222046 C-2.21620246 0 -2.21620246 0 0 0 Z " fill="#D5E7EF" transform="translate(82,111)"/>
<path d="M0 0 C3.39086506 0.65371942 5.86928847 1.9670268 8.80859375 3.7578125 C10.17661133 4.57185547 10.17661133 4.57185547 11.57226562 5.40234375 C13.48301732 6.55113925 15.3892935 7.70741163 17.29101562 8.87109375 C18.20431641 9.41121094 19.11761719 9.95132813 20.05859375 10.5078125 C20.88673584 11.00941895 21.71487793 11.51102539 22.56811523 12.02783203 C25.57243406 13.2288357 26.95237384 12.99802454 30 12 C32.09169108 10.98083471 32.09169108 10.98083471 34.06640625 9.6796875 C34.79923828 9.22722656 35.53207031 8.77476562 36.28710938 8.30859375 C37.81036107 7.34887981 39.33118389 6.38530044 40.84960938 5.41796875 C41.58115234 4.96808594 42.31269531 4.51820313 43.06640625 4.0546875 C43.72584229 3.63687012 44.38527832 3.21905273 45.06469727 2.78857422 C47 2 47 2 49.16772461 2.21142578 C51 3 51 3 52.25 5.5625 C52.4975 6.366875 52.745 7.17125 53 8 C52.03320312 8.58007812 51.06640625 9.16015625 50.0703125 9.7578125 C49.44439209 10.13381592 48.81847168 10.50981934 48.17358398 10.8972168 C46.80230276 11.71907036 45.42940052 12.53822498 44.05493164 13.35473633 C40.9869216 15.18138842 37.96196712 17.02530593 34.98828125 19.00390625 C34.14652344 19.55949219 33.30476563 20.11507812 32.4375 20.6875 C31.71433594 21.18636719 30.99117187 21.68523437 30.24609375 22.19921875 C26.86421856 23.40493078 25.25223756 22.45021651 22 21 C19.1302926 19.46588869 16.3443496 17.81231108 13.5625 16.125 C12.10570138 15.25221576 10.64867261 14.37981555 9.19140625 13.5078125 C8.49289551 13.08790039 7.79438477 12.66798828 7.07470703 12.23535156 C4.07319187 10.44814672 1.03937534 8.72191225 -2 7 C-1.125 2.25 -1.125 2.25 0 0 Z " fill="#3DC9C9" transform="translate(26,178)"/>
<path d="M0 0 C5.61 0 11.22 0 17 0 C17 1.98 17 3.96 17 6 C13.37 6 9.74 6 6 6 C6 11.28 6 16.56 6 22 C11.28 22 16.56 22 22 22 C22 19.36 22 16.72 22 14 C23.98 12.35 25.96 10.7 28 9 C28 15.27 28 21.54 28 28 C18.76 28 9.52 28 0 28 C0 18.76 0 9.52 0 0 Z " fill="#030202" transform="translate(118,131)"/>
<path d="M0 0 C2.53271484 1.25585938 2.53271484 1.25585938 5.2109375 2.84375 C6.20222656 3.42688965 7.19351563 4.0100293 8.21484375 4.61083984 C9.25769531 5.2342627 10.30054688 5.85768555 11.375 6.5 C12.44105469 7.12986816 13.50710937 7.75973633 14.60546875 8.40869141 C17.74174939 10.26457694 20.87183768 12.13047021 24 14 C25.28052246 14.76328613 25.28052246 14.76328613 26.58691406 15.54199219 C30.73296246 18.0143106 34.87123826 20.49892317 39 23 C36.14769709 26.2748663 34.35522973 27.63366479 30 28 C27.62255859 27.09472656 27.62255859 27.09472656 25.1484375 25.640625 C24.22297119 25.10655029 23.29750488 24.57247559 22.34399414 24.0222168 C21.36422607 23.43738525 20.38445801 22.85255371 19.375 22.25 C18.36622803 21.66323486 17.35745605 21.07646973 16.31811523 20.47192383 C14.23411812 19.25828947 12.15364938 18.03857715 10.07666016 16.81298828 C6.26476536 14.56674715 2.43209657 12.35771421 -1.40185547 10.14941406 C-4.94026919 8.10935809 -8.47035543 6.05518394 -12 4 C-8.01094007 -0.10174524 -5.70978345 -1.53641317 0 0 Z " fill="#D6E9F0" transform="translate(39,82)"/>
<path d="M0 0 C2.31 0 4.62 0 7 0 C7 19.14 7 38.28 7 58 C4.69 58 2.38 58 0 58 C0 38.86 0 19.72 0 0 Z " fill="#3FC9C9" transform="translate(239,14)"/>
<path d="M0 0 C5.28 0 10.56 0 16 0 C16 1.65 16 3.3 16 5 C12.7 5 9.4 5 6 5 C6 10.28 6 15.56 6 21 C11.28 21 16.56 21 22 21 C22 18.69 22 16.38 22 14 C23.98 12.35 25.96 10.7 28 9 C28 14.94 28 20.88 28 27 C18.76 27 9.52 27 0 27 C0 18.09 0 9.18 0 0 Z " fill="#000101" transform="translate(118,171)"/>
<path d="M0 0 C5.28 0 10.56 0 16 0 C16 1.65 16 3.3 16 5 C12.7 5 9.4 5 6 5 C6 10.28 6 15.56 6 21 C11.28 21 16.56 21 22 21 C22 18.69 22 16.38 22 14 C23.98 12.35 25.96 10.7 28 9 C28 14.94 28 20.88 28 27 C18.76 27 9.52 27 0 27 C0 18.09 0 9.18 0 0 Z " fill="#000101" transform="translate(118,92)"/>
<path d="M0 0 C1.32 0.66 2.64 1.32 4 2 C4 6 4 6 1.84765625 8.33203125 C-0.00378467 9.98093025 -1.85794073 11.62678582 -3.71484375 13.26953125 C-6.67244791 16.31630772 -6.67244791 16.31630772 -7 23 C-12.28 23 -17.56 23 -23 23 C-23 17.72 -23 12.44 -23 7 C-19.7 7 -16.4 7 -13 7 C-13 5.35 -13 3.7 -13 2 C-18.28 2 -23.56 2 -29 2 C-29 1.67 -29 1.34 -29 1 C-23.39 1 -17.78 1 -12 1 C-12 1.99 -12 2.98 -12 4 C-10.56138706 3.91253716 -9.12402492 3.80434652 -7.6875 3.6875 C-6.88699219 3.62949219 -6.08648437 3.57148438 -5.26171875 3.51171875 C-2.63727666 2.91793306 -1.69179328 2.04219706 0 0 Z " fill="#EB7E59" transform="translate(147,169)"/>
<path d="M0 0 C1.32 0.66 2.64 1.32 4 2 C4 6 4 6 1.84765625 8.33203125 C-0.00378467 9.98093025 -1.85794073 11.62678582 -3.71484375 13.26953125 C-6.67244791 16.31630772 -6.67244791 16.31630772 -7 23 C-12.28 23 -17.56 23 -23 23 C-23 17.72 -23 12.44 -23 7 C-19.7 7 -16.4 7 -13 7 C-13 5.35 -13 3.7 -13 2 C-18.28 2 -23.56 2 -29 2 C-29 1.67 -29 1.34 -29 1 C-23.39 1 -17.78 1 -12 1 C-12 1.99 -12 2.98 -12 4 C-10.56138706 3.91253716 -9.12402492 3.80434652 -7.6875 3.6875 C-6.88699219 3.62949219 -6.08648437 3.57148437 -5.26171875 3.51171875 C-2.63727666 2.91793306 -1.69179328 2.04219706 0 0 Z " fill="#EB7E59" transform="translate(147,90)"/>
<path d="M0 0 C16.83 0 33.66 0 51 0 C51 2.31 51 4.62 51 7 C34.17 7 17.34 7 0 7 C0 4.69 0 2.38 0 0 Z " fill="#1A1B1B" transform="translate(103,50)"/>
<path d="M0 0 C16.83 0 33.66 0 51 0 C51 1.98 51 3.96 51 6 C34.17 6 17.34 6 0 6 C0 4.02 0 2.04 0 0 Z " fill="#060606" transform="translate(103,62)"/>
<path d="M0 0 C16.17 0 32.34 0 49 0 C49 1.98 49 3.96 49 6 C32.83 6 16.66 6 0 6 C0 4.02 0 2.04 0 0 Z " fill="#060707" transform="translate(166,192)"/>
<path d="M0 0 C16.17 0 32.34 0 49 0 C49 1.98 49 3.96 49 6 C32.83 6 16.66 6 0 6 C0 4.02 0 2.04 0 0 Z " fill="#000000" transform="translate(166,180)"/>
<path d="M0 0 C16.17 0 32.34 0 49 0 C49 1.98 49 3.96 49 6 C32.83 6 16.66 6 0 6 C0 4.02 0 2.04 0 0 Z " fill="#030303" transform="translate(166,153)"/>
<path d="M0 0 C2.97 1.98 2.97 1.98 6 4 C8.58655333 4.66743877 8.58655333 4.66743877 11 4 C13.18777466 2.0624994 13.18777466 2.0624994 15 0 C15.66 0 16.32 0 17 0 C17 6.93 17 13.86 17 21 C14.525 20.01 14.525 20.01 12 19 C6.35122104 17.43757178 5.82734573 18.08632714 0 21 C0 14.07 0 7.14 0 0 Z " fill="#F6A899" transform="translate(188,76)"/>
<path d="M0 0 C16.83 0 33.66 0 51 0 C51 1.65 51 3.3 51 5 C34.17 5 17.34 5 0 5 C0 3.35 0 1.7 0 0 Z " fill="#DEF1F9" transform="translate(103,57)"/>
<path d="M0 0 C16.17 0 32.34 0 49 0 C49 1.65 49 3.3 49 5 C32.83 5 16.66 5 0 5 C0 3.35 0 1.7 0 0 Z " fill="#000000" transform="translate(166,141)"/>
<path d="M0 0 C1.8125 0.99609375 1.8125 0.99609375 3.8125 3.99609375 C-1.7975 9.60609375 -7.4075 15.21609375 -13.1875 20.99609375 C-17.09182869 19.0439294 -19.22589944 17.12222768 -22.1875 13.99609375 C-21.5275 12.67609375 -20.8675 11.35609375 -20.1875 9.99609375 C-17.52083333 9.99609375 -14.85416667 9.99609375 -12.1875 9.99609375 C-9.46707373 7.51544864 -7.08678648 4.82167279 -4.625 2.0859375 C-2.1875 -0.00390625 -2.1875 -0.00390625 0 0 Z " fill="#EC7E59" transform="translate(148.1875,130.00390625)"/>
<path d="M0 0 C5.61 0 11.22 0 17 0 C17 0.99 17 1.98 17 3 C19.64 3 22.28 3 25 3 C24.0919838 4.13199353 23.17316174 5.25532363 22.25 6.375 C21.73953125 7.00148437 21.2290625 7.62796875 20.703125 8.2734375 C18.8883638 10.11317248 17.41807262 11.10297306 15 12 C12.75 11.125 12.75 11.125 11 10 C10.34 11.32 9.68 12.64 9 14 C10.98 15.98 12.96 17.96 15 20 C17.49361571 18.79618552 19.68143083 17.54571278 22 16 C22 17.98 22 19.96 22 22 C16.72 22 11.44 22 6 22 C6 16.72 6 11.44 6 6 C9.3 6 12.6 6 16 6 C16 4.35 16 2.7 16 1 C10.72 1 5.44 1 0 1 C0 0.67 0 0.34 0 0 Z " fill="#3BA1A1" transform="translate(118,170)"/>
<path d="M0 0 C5.61 0 11.22 0 17 0 C17 0.99 17 1.98 17 3 C19.64 3 22.28 3 25 3 C24.0919838 4.13199353 23.17316174 5.25532363 22.25 6.375 C21.73953125 7.00148438 21.2290625 7.62796875 20.703125 8.2734375 C18.8883638 10.11317248 17.41807262 11.10297306 15 12 C12.75 11.125 12.75 11.125 11 10 C10.34 11.32 9.68 12.64 9 14 C10.98 15.98 12.96 17.96 15 20 C17.49361571 18.79618552 19.68143083 17.54571278 22 16 C22 17.98 22 19.96 22 22 C16.72 22 11.44 22 6 22 C6 16.72 6 11.44 6 6 C9.3 6 12.6 6 16 6 C16 4.35 16 2.7 16 1 C10.72 1 5.44 1 0 1 C0 0.67 0 0.34 0 0 Z " fill="#3BA1A1" transform="translate(118,91)"/>
<path d="M0 0 C1.32 0.99 2.64 1.98 4 3 C3.41889329 6.42754467 2.31446376 8.04538661 -0.16015625 10.453125 C-0.78857422 11.071875 -1.41699219 11.690625 -2.06445312 12.328125 C-2.72380859 12.96234375 -3.38316406 13.5965625 -4.0625 14.25 C-4.72572266 14.8996875 -5.38894531 15.549375 -6.07226562 16.21875 C-7.70829317 17.8194676 -9.35090912 19.41276193 -11 21 C-14.76488042 19.27845212 -17.15063897 17.00765886 -20 14 C-19.34 12.68 -18.68 11.36 -18 10 C-15.33333333 10 -12.66666667 10 -10 10 C-7.31699563 7.8027454 -7.31699563 7.8027454 -4.75 5 C-3.85796875 4.071875 -2.9659375 3.14375 -2.046875 2.1875 C-1.03367188 1.1046875 -1.03367188 1.1046875 0 0 Z " fill="#FEF6F3" transform="translate(204,45)"/>
<path d="M0 0 C9.57 0 19.14 0 29 0 C29 1.98 29 3.96 29 6 C19.43 6 9.86 6 0 6 C0 4.02 0 2.04 0 0 Z " fill="#090A0A" transform="translate(103,39)"/>
<path d="M0 0 C2.31 0 4.62 0 7 0 C6.09827532 1.17825358 5.17798498 2.34231577 4.25 3.5 C3.73953125 4.1496875 3.2290625 4.799375 2.703125 5.46875 C-0.07349284 7.9651587 -3.39374364 7 -7 7 C-7.44844853 11.12612615 -7.44844853 11.12612615 -4.5 13.75 C-3.675 14.4925 -2.85 15.235 -2 16 C0.49361571 14.79618552 2.68143083 13.54571278 5 12 C5 14.31 5 16.62 5 19 C-0.28 19 -5.56 19 -11 19 C-11 13.72 -11 8.44 -11 3 C-7.37 3 -3.74 3 0 3 C0 2.01 0 1.02 0 0 Z " fill="#39B7B6" transform="translate(135,134)"/>
<path d="M0 0 C9.57 0 19.14 0 29 0 C29 1.65 29 3.3 29 5 C19.43 5 9.86 5 0 5 C0 3.35 0 1.7 0 0 Z " fill="#DEF1F9" transform="translate(103,45)"/>
<path d="M0 0 C0 4.62 0 9.24 0 14 C-2.31 14 -4.62 14 -7 14 C-7 9.71 -7 5.42 -7 1 C-5 0 -5 0 0 0 Z " fill="#41CACA" transform="translate(246,77)"/>
<path d="M0 0 C3.0831351 1.19899698 6.06279492 2.47700477 9 4 C8.125 8.75 8.125 8.75 7 11 C3.33118845 10.29445932 0.29549466 8.72264494 -3 7 C-2.38722388 4.03824877 -1.74627478 2.61941217 0 0 Z " fill="#3DC8C8" transform="translate(13,170)"/>
<path d="M0 0 C2.64 0 5.28 0 8 0 C7.0919838 1.13199353 6.17316174 2.25532363 5.25 3.375 C4.73953125 4.00148437 4.2290625 4.62796875 3.703125 5.2734375 C1.8883638 7.11317248 0.41807262 8.10297306 -2 9 C-4.25 8.125 -4.25 8.125 -6 7 C-7.32 7.99 -8.64 8.98 -10 10 C-10 8.02 -10 6.04 -10 4 C-6.7 4 -3.4 4 0 4 C0 2.68 0 1.36 0 0 Z " fill="#46C5C3" transform="translate(135,173)"/>
<path d="M0 0 C2.64 0 5.28 0 8 0 C7.0919838 1.13199353 6.17316174 2.25532363 5.25 3.375 C4.73953125 4.00148438 4.2290625 4.62796875 3.703125 5.2734375 C1.8883638 7.11317248 0.41807262 8.10297306 -2 9 C-4.25 8.125 -4.25 8.125 -6 7 C-7.32 7.99 -8.64 8.98 -10 10 C-10 8.02 -10 6.04 -10 4 C-6.7 4 -3.4 4 0 4 C0 2.68 0 1.36 0 0 Z " fill="#53C8C6" transform="translate(135,94)"/>
<path d="M0 0 C3.36591866 1.44253657 5.51047079 3.33264727 8 6 C9.98 5.34 11.96 4.68 14 4 C14 5.32 14 6.64 14 8 C9.38 8 4.76 8 0 8 C0 5.36 0 2.72 0 0 Z " fill="#43C6C4" transform="translate(125,144)"/>
<path d="M0 0 C1.98 0 3.96 0 6 0 C5.01 0.495 5.01 0.495 4 1 C3.67 1.66 3.34 2.32 3 3 C2 5 2 5 0 6 C0 4.02 0 2.04 0 0 Z " fill="#44C5C4" transform="translate(125,98)"/>
</svg>
