<?xml version="1.0" encoding="UTF-8"?>
<svg version="1.1" xmlns="http://www.w3.org/2000/svg" width="204" height="247">
<path d="M0 0 C67.32 0 134.64 0 204 0 C204 81.51 204 163.02 204 247 C136.68 247 69.36 247 0 247 C0 165.49 0 83.98 0 0 Z " fill="#FCFCFC" transform="translate(0,0)"/>
<path d="M0 0 C9.19824941 -0.06609203 18.3964132 -0.11559815 27.59485096 -0.14572173 C31.86920395 -0.16020256 36.14339088 -0.1797363 40.41764832 -0.21217346 C65.89528459 -0.40029904 90.37805935 1.02891446 115.55078125 5.27783203 C121.86171519 6.32733383 128.20447513 7.04550296 134.5625 7.75 C140.10466069 8.37692348 145.61295605 9.08386408 151.12109375 9.96484375 C156.10020266 10.74856861 161.08221574 11.36525667 166.09375 11.89453125 C167.4870235 12.0471218 168.88025256 12.20011866 170.2734375 12.35351562 C172.40315172 12.58798184 174.53256454 12.8156764 176.66503906 13.02368164 C178.7689996 13.23126542 180.8683232 13.46659461 182.96875 13.70703125 C184.20044922 13.8356958 185.43214844 13.96436035 186.70117188 14.09692383 C191.07303231 15.29374974 192.51890368 16.15249022 195 20 C195.68493675 24.39792179 195.58049678 28.73455546 195.48828125 33.17578125 C195.47766914 35.09622505 195.47766914 35.09622505 195.46684265 37.0554657 C195.44781714 40.44745312 195.39875838 43.83835774 195.34332275 47.22991943 C195.29203199 50.69544834 195.26930789 54.16115347 195.24414062 57.62695312 C195.18903361 64.41849745 195.10273564 71.20901588 195 78 C191.04 78 187.08 78 183 78 C183 63.15 183 48.3 183 33 C179.65875 35.124375 176.3175 37.24875 172.875 39.4375 C171.78719238 40.12851807 170.69938477 40.81953613 169.57861328 41.53149414 C165.20371955 44.31294764 160.83273704 47.09876588 156.4921875 49.93359375 C155.84910645 50.35261963 155.20602539 50.77164551 154.54345703 51.20336914 C152.85479299 52.30654076 151.16947025 53.4148222 149.484375 54.5234375 C147 56 147 56 145 56 C145.01776489 57.05378342 145.03552979 58.10756683 145.05383301 59.19328308 C145.21601603 69.12487384 145.33593321 79.05619598 145.41449738 88.98881054 C145.45624702 94.0953967 145.51286984 99.20091391 145.60351562 104.30688477 C145.69045175 109.23474431 145.73827581 114.161576 145.75901794 119.0901432 C145.77379842 120.97015889 145.80266316 122.85011835 145.84584045 124.72969627 C145.90395283 127.36424537 145.91191294 129.99455162 145.90820312 132.62963867 C145.93696533 133.40647507 145.96572754 134.18331146 145.99536133 134.98368835 C145.94674165 138.1760242 145.62422337 140.39008204 143.29856873 142.66243935 C141.19996788 144.0810977 139.40592298 145.19925268 137 146 C135.68 145.67 134.36 145.34 133 145 C132.67 116.29 132.34 87.58 132 58 C111.705 55.525 111.705 55.525 91 53 C88.03 52.34 85.06 51.68 82 51 C82.00523682 52.17916992 82.01047363 53.35833984 82.01586914 54.57324219 C82.03414375 59.00145694 82.04551306 63.42966845 82.05493164 67.85791016 C82.05992101 69.7644914 82.06671487 71.67106891 82.07543945 73.57763672 C82.16597155 93.88877885 82.16597155 93.88877885 81 104 C76.95609277 102.46641127 73.89586122 100.61661823 70.4375 98 C65.99816428 94.5048772 65.99816428 94.5048772 61 92 C58.82054904 92.63803505 58.82054904 92.63803505 56.70703125 93.9921875 C55.91232422 94.44980469 55.11761719 94.90742187 54.29882812 95.37890625 C53.0680957 96.11947266 53.0680957 96.11947266 51.8125 96.875 C50.17391977 97.83200193 48.53463525 98.78779935 46.89453125 99.7421875 C46.17112549 100.1738623 45.44771973 100.60553711 44.70239258 101.05029297 C43 102 43 102 42 102 C42.43468301 83.20536316 43.93039669 64.67120954 46 46 C42.7 46 39.4 46 36 46 C28.08 45.01 20.16 44.02 12 43 C12 80.62 12 118.24 12 157 C14.97 157 17.94 157 21 157 C23.27010174 157.19904191 25.53685223 157.44235331 27.796875 157.734375 C29.06861572 157.89454102 30.34035645 158.05470703 31.65063477 158.21972656 C32.31813751 158.30613403 32.98564026 158.3925415 33.67337036 158.48156738 C37.28456247 158.94836307 40.89811743 159.39604675 44.51171875 159.84375 C45.27004501 159.93795227 46.02837128 160.03215454 46.80967712 160.12921143 C56.04976305 161.26743363 65.30549035 162.26067713 74.5625 163.25 C75.38979614 163.33858276 76.21709229 163.42716553 77.06945801 163.51843262 C81.7126607 164.01524859 86.35617275 164.50905744 91 165 C90.34 168.96 89.68 172.92 89 177 C76.00418437 176.29370567 63.10970146 174.89404824 50.17626953 173.45898438 C46.42321457 173.04436159 42.66877657 172.64348362 38.91398621 172.24491882 C35.65918805 171.89866802 32.4049222 171.54757056 29.15072632 171.19570923 C27.56419178 171.0250701 25.97746213 170.85623439 24.39053345 170.68930054 C22.1503731 170.45312147 19.91109555 170.20975281 17.671875 169.96484375 C16.3837793 169.8268335 15.09568359 169.68882324 13.76855469 169.54663086 C9.67615512 168.95302613 5.95294681 168.22225793 2 167 C-0.41714554 163.37428169 -0.24710229 161.72844861 -0.24050903 157.41316223 C-0.24221788 156.74089637 -0.24392673 156.06863051 -0.24568737 155.37599295 C-0.24898693 153.11879967 -0.2379711 150.86190232 -0.22705078 148.60473633 C-0.22648677 146.98855089 -0.22680304 145.37236495 -0.22793579 143.75617981 C-0.22851069 139.36389085 -0.21673424 134.97171066 -0.20278788 130.57944703 C-0.19030332 125.99101449 -0.18911182 121.40257959 -0.18673706 116.81413269 C-0.18051559 108.12313012 -0.16409576 99.43217774 -0.14403808 90.74119729 C-0.12169981 80.8477317 -0.11069087 70.95426374 -0.10064721 61.06077921 C-0.07973011 40.70715811 -0.04454119 20.35358221 0 0 Z " fill="#030303" transform="translate(0,0)"/>
<path d="M0 0 C13.04491496 16.01867976 16.28036497 39.64791019 14.7265625 59.4921875 C11.69987648 84.67649948 -1.85015006 105.85362641 -21.23046875 121.83984375 C-23 123 -23 123 -25 123 C-21.57789718 129.64608389 -17.53984617 135.79983735 -13.30322266 141.94555664 C-10 146.79049135 -10 146.79049135 -10 149 C-18.68805897 148.27492249 -27.11563913 146.42035764 -35.62890625 144.62109375 C-37.23022391 144.28585129 -38.83161991 143.95098284 -40.43309021 143.61647034 C-44.6209961 142.74067016 -48.80782724 141.85983582 -52.9944458 140.97790527 C-57.27755375 140.07659481 -61.56167122 139.18010965 -65.84570312 138.28320312 C-74.23145737 136.52682395 -82.61608101 134.76511871 -91 133 C-90.39333163 124.48157773 -88.79539086 116.19213181 -87.12890625 107.83203125 C-86.84334142 106.38342019 -86.55810476 104.9347444 -86.2731781 103.48600769 C-85.67845755 100.46737847 -85.08057172 97.44939989 -84.48022461 94.43188477 C-83.7140053 90.57988393 -82.95460459 86.72657784 -82.19741917 82.87279224 C-81.61033155 79.88765616 -81.02023383 76.90312142 -80.42918205 73.91876793 C-80.14814249 72.49846483 -79.86788156 71.07800742 -79.58844185 69.65738869 C-79.19676543 67.66920096 -78.80073222 65.68187306 -78.40454102 63.69458008 C-78.18105484 62.5678035 -77.95756866 61.44102692 -77.72731018 60.28010559 C-76.95516873 56.79781489 -76.01217288 53.41925589 -75 50 C-71.2028494 54.52524502 -67.9981939 59.38969895 -64.75 64.3125 C-64.19570312 65.14845703 -63.64140625 65.98441406 -63.0703125 66.84570312 C-61.71142566 68.89574792 -60.3547247 70.94720338 -59 73 C-44.8978785 68.70700723 -32.06641494 60.84075455 -22 50 C-21.40703125 49.4121875 -20.8140625 48.824375 -20.203125 48.21875 C-7.45852504 34.98017329 -2.2263505 17.89868627 0 0 Z " fill="#010101" transform="translate(189,97)"/>
<path d="M0 0 C23.1 0 46.2 0 70 0 C67.13353152 2.14985136 65.26310457 3.47749442 62.13134766 4.83422852 C61.38111328 5.16242081 60.63087891 5.4906131 59.85791016 5.82875061 C59.05144043 6.17530197 58.2449707 6.52185333 57.4140625 6.87890625 C56.56811523 7.24757309 55.72216797 7.61623993 54.85058594 7.99607849 C53.0438801 8.78290673 51.23616983 9.56743192 49.42755127 10.34985352 C44.75953911 12.36967331 40.09911831 14.40688487 35.4375 16.44140625 C34.5263443 16.83848785 33.6151886 17.23556946 32.67642212 17.64468384 C25.63687341 20.71440179 18.61756398 23.82441019 11.625 27 C10.32876709 27.58503296 10.32876709 27.58503296 9.00634766 28.18188477 C8.23339355 28.53436279 7.46043945 28.88684082 6.6640625 29.25 C5.69654053 29.69085937 5.69654053 29.69085937 4.70947266 30.140625 C2.72843095 31.09301961 2.72843095 31.09301961 0 33 C0 22.11 0 11.22 0 0 Z " fill="#FCFCFC" transform="translate(0,0)"/>
<path d="M0 0 C1.21365234 0.17595703 2.42730469 0.35191406 3.67773438 0.53320312 C5.55235352 0.81260742 5.55235352 0.81260742 7.46484375 1.09765625 C8.71845703 1.28005859 9.97207031 1.46246094 11.26367188 1.65039062 C16.65236613 2.43821142 22.0325376 3.25163737 27.40234375 4.16015625 C23.65312985 8.45527217 18.95340786 11.13490405 14.15234375 14.09765625 C13.33121094 14.61005859 12.51007813 15.12246094 11.6640625 15.65039062 C10.0297268 16.66958413 8.39107193 17.68188623 6.74804688 18.68701172 C5.23681437 19.63609341 3.74816983 20.62264692 2.29101562 21.65283203 C1.63166016 22.11028809 0.97230469 22.56774414 0.29296875 23.0390625 C-0.26874023 23.44842041 -0.83044922 23.85777832 -1.40917969 24.27954102 C-7.20100649 26.61009872 -14.44491936 24.92475649 -20.47265625 24.06640625 C-21.28259033 23.95542603 -22.09252441 23.8444458 -22.92700195 23.73010254 C-25.48461167 23.37848373 -28.04111482 23.01945136 -30.59765625 22.66015625 C-32.3436819 22.41877768 -34.08977514 22.17788759 -35.8359375 21.9375 C-40.09064575 21.35069348 -44.34437876 20.7572412 -48.59765625 20.16015625 C-47.2142959 17.39343555 -45.50205536 16.89154694 -42.76953125 15.46484375 C-38.70365886 13.30312427 -34.70108629 11.07599219 -30.73828125 8.73046875 C-29.28228516 7.8796875 -29.28228516 7.8796875 -27.796875 7.01171875 C-25.80884517 5.84786552 -23.82715585 4.67312211 -21.8515625 3.48828125 C-20.88605469 2.92882812 -19.92054687 2.369375 -18.92578125 1.79296875 C-17.6404248 1.03330811 -17.6404248 1.03330811 -16.32910156 0.25830078 C-11.01355598 -1.87874999 -5.5385822 -0.81305135 0 0 Z " fill="#F8F8F8" transform="translate(141.59765625,20.83984375)"/>
<path d="M0 0 C0 0.66 0 1.32 0 2 C-0.94617188 2.52207031 -1.89234375 3.04414063 -2.8671875 3.58203125 C-4.20324228 4.32531006 -5.53916899 5.06881909 -6.875 5.8125 C-7.58881836 6.20614746 -8.30263672 6.59979492 -9.03808594 7.00537109 C-13.01501131 9.22503031 -16.86956421 11.53809948 -20.6484375 14.08203125 C-33.74429014 22.82276763 -33.74429014 22.82276763 -40.1875 22.3125 C-42.13318339 21.91296445 -44.07056673 21.47180479 -46 21 C-48.05301909 20.69437256 -50.1087113 20.4401797 -52.16918945 20.19018555 C-55.1181841 19.8320711 -58.05840432 19.41391305 -61 19 C-61 18.34 -61 17.68 -61 17 C-59.71484375 16.44921875 -58.4296875 15.8984375 -57.14453125 15.34765625 C-56.3045459 14.98728271 -55.46456055 14.62690918 -54.59912109 14.25561523 C-52.72164599 13.45175849 -50.84303881 12.6505413 -48.96337891 11.85180664 C-44.0516799 9.76027075 -39.16544596 7.63178112 -34.31640625 5.3984375 C-33.40334717 4.98585693 -32.49028809 4.57327637 -31.54956055 4.14819336 C-29.81565194 3.36330493 -28.08864649 2.5629109 -26.37036133 1.74438477 C-17.63442994 -2.16436997 -9.27040311 -1.39930613 0 0 Z " fill="#F4F4F4" transform="translate(90,14)"/>
</svg>
