<?xml version="1.0" encoding="utf-8"?>
<!-- Svg Vector Icons : http://www.onlinewebfonts.com/icon -->
<!DOCTYPE svg PUBLIC "-//W3C//DTD SVG 1.1//EN" "http://www.w3.org/Graphics/SVG/1.1/DTD/svg11.dtd">
<svg version="1.1" xmlns="http://www.w3.org/2000/svg" xmlns:xlink="http://www.w3.org/1999/xlink" x="0px" y="0px" viewBox="0 0 256 256" enable-background="new 0 0 256 256" xml:space="preserve">
<metadata> Svg Vector Icons : http://www.onlinewebfonts.com/icon </metadata>
<g><g><path fill="#000000" d="M179.7,72.8h-21.7v-17h-13.1v67.8L40.5,72.8H10v169.5h195.8v-89l-26.1-12.7V72.8L179.7,72.8z M49.2,225.3H31.7v-67.8h17.4V225.3z M75.3,225.3H57.9v-67.8h17.4V225.3z M101.4,225.3H84v-67.8h17.4V225.3z M244.9,30.4c-5-27.4-30.4-12.7-30.4-12.7c-15.3-4.8-21.8,8.5-21.8,8.5c-20.6-2.1-21.7,17-21.7,17c-8.1,5.9-4.4,25.4-4.4,25.4c5.7,0,4.4-8.5,4.4-8.5c8.1-3.6,8.7-8.5,8.7-8.5c8,4.3,17.4-4.2,17.4-4.2c15.9,6.3,17.4-4.2,17.4-4.2c-1.7,10.5,8.7,12.7,8.7,12.7c21.2,3.6,17.4-12.7,17.4-12.7C249.3,37,244.9,30.4,244.9,30.4z"/></g></g>
</svg>