<?xml version="1.0" standalone="no"?>
<!DOCTYPE svg PUBLIC "-//W3C//DTD SVG 20010904//EN"
 "http://www.w3.org/TR/2001/REC-SVG-20010904/DTD/svg10.dtd">
<svg version="1.0" xmlns="http://www.w3.org/2000/svg"
 width="512.000000pt" height="512.000000pt" viewBox="0 0 512.000000 512.000000"
 preserveAspectRatio="xMidYMid meet">

<g transform="translate(0.000000,512.000000) scale(0.100000,-0.100000)"
fill="#000000" stroke="none">
<path d="M2339 4304 c-459 -83 -841 -411 -990 -851 -49 -147 -63 -234 -63
-398 0 -136 3 -161 32 -265 77 -288 257 -636 514 -996 257 -361 579 -707 700
-753 41 -15 100 20 209 126 161 155 405 452 575 698 75 109 87 153 50 194 -21
23 -74 36 -105 26 -11 -3 -60 -63 -110 -133 -162 -229 -409 -529 -544 -661
l-55 -53 -36 27 c-19 15 -89 86 -155 158 -322 355 -566 697 -727 1017 -129
258 -178 428 -177 620 1 177 34 313 114 474 139 279 400 491 707 573 87 24
115 27 272 27 159 0 184 -2 275 -27 458 -124 789 -524 821 -994 8 -128 -7
-225 -62 -388 -24 -71 -44 -138 -44 -148 0 -30 54 -77 88 -77 49 0 76 31 115
134 63 164 81 260 81 436 1 172 -14 262 -66 410 -65 182 -159 332 -298 470
-187 188 -422 310 -679 354 -115 20 -335 20 -442 0z"/>
<path d="M2395 3651 c-106 -31 -176 -72 -257 -152 -119 -117 -178 -257 -178
-424 0 -102 15 -166 62 -265 32 -68 56 -100 117 -160 88 -86 166 -132 277
-160 98 -25 190 -25 288 0 111 28 189 74 277 160 128 126 186 277 177 457 -14
248 -181 463 -420 538 -98 31 -248 34 -343 6z m297 -182 c161 -54 273 -196
285 -361 13 -176 -76 -331 -239 -413 -319 -159 -685 154 -578 496 70 228 310
353 532 278z"/>
<path d="M3439 2391 c-46 -46 -37 -106 21 -136 43 -22 68 -19 101 14 38 39 40
88 3 125 -37 37 -86 35 -125 -3z"/>
<path d="M1830 1456 c-259 -68 -404 -168 -417 -290 -22 -194 237 -334 742
-402 183 -25 627 -25 810 0 411 55 661 159 726 301 68 148 -50 279 -326 364
-148 45 -226 57 -265 41 -44 -18 -64 -61 -50 -105 6 -18 17 -39 25 -45 7 -6
73 -27 145 -45 137 -36 262 -89 295 -124 18 -21 18 -22 -4 -45 -48 -51 -238
-119 -421 -150 -174 -29 -303 -38 -535 -38 -391 0 -693 50 -880 144 -68 35
-90 60 -76 87 17 31 162 96 290 130 124 32 148 48 158 104 5 31 1 40 -25 67
-37 37 -70 38 -192 6z"/>
</g>
</svg>
