<?xml version="1.0" standalone="no"?>
<!DOCTYPE svg PUBLIC "-//W3C//DTD SVG 20010904//EN"
 "http://www.w3.org/TR/2001/REC-SVG-20010904/DTD/svg10.dtd">
<svg version="1.0" xmlns="http://www.w3.org/2000/svg"
 width="200.000000pt" height="200.000000pt" viewBox="0 0 200.000000 200.000000"
 preserveAspectRatio="xMidYMid meet">
<metadata>
Created by potrace 1.10, written by Peter Selinger 2001-2011
</metadata>
<g transform="translate(0.000000,200.000000) scale(0.100000,-0.100000)"
fill="#000000" stroke="none">
<path d="M1343 1685 c-94 -40 -96 -192 -4 -240 120 -62 247 65 183 184 -34 62
-110 86 -179 56z m130 -66 c30 -33 34 -57 13 -98 -29 -56 -102 -67 -147 -22
-48 49 -37 120 24 147 42 18 76 10 110 -27z"/>
<path d="M461 1536 c-35 -20 -50 -54 -51 -118 l0 -58 253 -2 c307 -4 301 1
183 -134 -133 -151 -129 -191 31 -355 77 -79 103 -111 96 -122 -6 -11 -187
-158 -261 -212 -1 -1 25 -36 58 -78 l61 -76 127 101 c70 55 138 110 151 122
55 49 78 166 47 241 -8 19 -54 75 -101 124 -48 50 -85 95 -83 100 7 23 170
201 183 201 7 0 56 -36 108 -80 195 -163 202 -164 387 -60 69 39 135 82 148
96 29 33 28 76 -6 141 l-27 52 -128 -75 c-70 -40 -137 -74 -148 -74 -12 0 -79
49 -152 110 -72 61 -156 123 -187 138 l-55 27 -305 3 c-242 1 -310 -1 -329
-12z m622 -41 c70 -18 88 -29 197 -121 137 -115 180 -144 208 -144 15 0 75 27
135 61 59 33 116 59 125 57 10 -2 21 -18 26 -41 12 -49 4 -57 -143 -141 -165
-95 -165 -95 -349 61 -128 108 -137 107 -258 -32 -111 -126 -111 -137 -5 -248
43 -45 86 -96 95 -114 24 -47 21 -123 -7 -164 -27 -40 -245 -219 -268 -219
-17 0 -59 51 -59 73 0 8 47 51 104 96 56 45 109 93 116 106 22 40 3 74 -99
179 -137 141 -139 167 -27 294 93 105 102 140 49 182 -24 19 -40 20 -243 20
-189 0 -219 2 -224 16 -11 28 -6 44 19 69 l24 25 263 0 c202 0 277 -4 321 -15z"/>
<path d="M635 938 c-11 -5 -116 -123 -234 -261 l-213 -251 25 -20 c13 -12 47
-40 74 -63 l49 -42 210 246 c115 135 215 259 222 275 33 76 -58 155 -133 116z
m73 -44 c24 -17 28 -44 11 -75 -17 -32 -369 -439 -384 -446 -15 -5 -69 32 -79
54 -6 14 364 451 398 470 27 16 28 16 54 -3z"/>
</g>
</svg>
