<?xml version="1.0" standalone="no"?>
<!DOCTYPE svg PUBLIC "-//W3C//DTD SVG 20010904//EN"
 "http://www.w3.org/TR/2001/REC-SVG-20010904/DTD/svg10.dtd">
<svg version="1.0" xmlns="http://www.w3.org/2000/svg"
 width="300.000000pt" height="300.000000pt" viewBox="0 0 300.000000 300.000000"
 preserveAspectRatio="xMidYMid meet">
<metadata>
Created by potrace 1.10, written by Peter Selinger 2001-2011
</metadata>
<g transform="translate(0.000000,300.000000) scale(0.100000,-0.100000)"
fill="#000000" stroke="none">
<path d="M734 2303 c-61 -64 -163 -335 -213 -568 -67 -307 -79 -661 -26 -741
9 -14 29 -24 57 -28 24 -4 58 -9 76 -12 32 -6 32 -6 21 22 -18 45 -23 249 -10
380 37 358 154 774 258 912 27 36 26 36 -47 47 -25 3 -55 8 -67 11 -16 4 -30
-2 -49 -23z m100 -32 c3 -5 -6 -35 -20 -67 -14 -33 -34 -77 -44 -99 -17 -40
-30 -79 -68 -210 -74 -251 -107 -481 -107 -733 l0 -152 -32 0 c-27 0 -33 5
-45 38 -19 55 -16 338 6 487 43 287 156 646 228 722 21 23 72 31 82 14z"/>
<path d="M963 2268 c-136 -150 -286 -782 -270 -1133 5 -111 18 -177 38 -199
12 -13 54 28 82 79 37 65 92 211 126 330 17 61 31 114 31 118 0 4 -12 7 -27 7
-55 0 -103 20 -109 44 -6 25 8 114 25 159 14 37 29 41 96 27 31 -6 58 -10 60
-8 2 1 11 86 20 188 15 156 16 199 6 271 -19 128 -39 159 -78 117z m33 -95
c10 -53 -2 -373 -15 -407 -10 -26 -15 -28 -46 -22 -46 9 -88 -13 -109 -58 -22
-46 -38 -135 -30 -168 6 -32 57 -78 85 -78 31 0 33 -26 9 -118 -42 -158 -124
-331 -147 -308 -4 4 -8 87 -7 184 0 145 5 205 27 332 50 285 90 431 164 599
40 91 58 103 69 44z"/>
<path d="M492 2042 c-88 -164 -164 -538 -147 -722 7 -79 16 -100 46 -100 16 0
18 9 18 88 -1 172 68 531 148 775 4 12 0 17 -14 17 -14 0 -29 -17 -51 -58z"/>
<path d="M2060 2053 c-145 -165 -299 -864 -262 -1183 15 -123 22 -133 112
-148 40 -7 75 -11 77 -9 2 3 -2 17 -9 33 -22 51 -15 356 11 514 58 345 144
627 230 754 34 51 34 50 -39 61 -25 3 -54 8 -66 11 -15 4 -30 -5 -54 -33z
m106 -26 c3 -8 -10 -45 -29 -83 -70 -140 -137 -381 -183 -659 -22 -130 -28
-194 -28 -338 l-1 -178 -30 3 c-51 5 -60 39 -58 223 1 166 17 297 58 495 47
224 135 472 187 527 24 25 76 31 84 10z"/>
<path d="M2298 2033 c-91 -104 -199 -430 -248 -748 -31 -196 -38 -430 -16
-515 9 -36 21 -69 26 -74 13 -13 59 32 90 88 22 41 23 47 8 58 -27 23 -38 78
-38 202 0 331 134 766 236 766 25 0 25 1 18 63 -12 116 -30 177 -54 177 -4 0
-14 -8 -22 -17z m30 -122 c4 -50 2 -54 -41 -100 -24 -26 -59 -78 -76 -115 -18
-37 -35 -66 -37 -63 -14 13 85 283 119 325 19 23 32 6 35 -47z m-220 -1068 c9
-17 9 -28 0 -47 -29 -64 -48 -10 -47 129 l1 80 17 -70 c10 -38 23 -80 29 -92z"/>
<path d="M2326 1717 c-87 -148 -163 -503 -154 -715 3 -56 9 -107 14 -112 5 -4
30 -11 56 -15 l48 -7 -12 32 c-14 42 -5 252 18 380 24 138 79 324 119 399 19
35 34 65 32 66 -1 1 -23 5 -49 8 -47 7 -47 6 -72 -36z m0 -148 c-51 -155 -87
-345 -93 -488 -4 -89 -9 -118 -16 -105 -13 22 -3 180 19 304 9 52 17 102 18
110 8 61 92 297 103 287 2 -2 -12 -51 -31 -108z"/>
<path d="M2472 1673 c-68 -133 -120 -338 -142 -558 -11 -107 -6 -219 10 -245
19 -32 64 45 114 194 31 93 32 106 8 106 -29 0 -42 21 -42 69 0 100 35 167 81
157 26 -5 26 -3 33 56 7 73 6 202 -3 242 -10 48 -28 41 -59 -21z m26 -138 c-3
-70 -6 -77 -33 -99 -19 -15 -32 -20 -37 -14 -8 14 52 188 65 188 5 0 8 -32 5
-75z m-82 -457 c-9 -29 -23 -64 -31 -78 -13 -23 -14 -17 -15 71 0 53 3 99 7
103 4 3 18 -4 32 -18 l24 -25 -17 -53z"/>
<path d="M891 1646 c-6 -14 -13 -47 -17 -74 l-6 -49 93 -17 c328 -61 734 -139
780 -151 25 -6 26 -4 38 65 7 39 11 73 10 74 -2 2 -197 40 -434 86 -236 45
-436 85 -442 87 -7 3 -17 -6 -22 -21z m259 -69 c69 -14 224 -45 345 -67 121
-23 226 -44 233 -46 22 -6 10 -49 -15 -52 -12 -2 -127 17 -255 42 -128 25
-296 57 -373 71 -171 31 -165 29 -165 59 0 40 0 40 230 -7z"/>
<path d="M2471 1323 c-6 -21 -11 -54 -11 -74 l0 -37 63 -11 c73 -13 82 -6 93
65 9 60 2 70 -48 78 -23 4 -53 9 -65 12 -18 5 -23 0 -32 -33z m83 -19 c18 -7
22 -49 5 -59 -5 -4 -21 -4 -35 -1 -26 7 -32 34 -12 54 14 14 20 14 42 6z"/>
</g>
</svg>
