<?xml version="1.0" encoding="UTF-8"?>
<!-- Uploaded to: SVG Repo, www.svgrepo.com, Generator: SVG Repo Mixer Tools -->
<svg width="800px" height="800px" version="1.1" viewBox="144 144 512 512" xmlns="http://www.w3.org/2000/svg">
 <defs>
  <clipPath id="a">
   <path d="m148.09 152h503.81v496h-503.81z"/>
  </clipPath>
 </defs>
 <g clip-path="url(#a)">
  <path d="m638.84 287.38-1.0664-0.53125c1.332-2.6641 2.5312-5.332 3.5977-7.9961-0.66797 2.8008-1.5977 5.7305-2.5312 8.5312zm-2.3984-69.309c-2.9336-13.062-9.5977-25.723-19.727-34.652-11.195-9.7305-25.723-13.461-40.383-13.727-8.5312-0.13281-16.926 0.80078-25.324 2-18.926 2.5312-36.652 9.5977-53.715 18.395-9.7305 4.9297-19.191 10.395-28.258 16.527-18.395 12.395-36.121 27.457-51.18 43.984-15.727 17.461-28.922 39.051-36.652 61.176-4.2656 12.527-7.8633 25.59-8.1289 38.918-0.39844 23.859 11.195 46.914 30.656 60.777 6.9297 4.9297 14.66 8.5312 22.793 10.797-8.9297 2.2656-17.594 4.9297-26.258 8.6641-16.395 6.9297-31.723 15.992-46.117 26.391-19.859 14.395-38.254 30.656-56.113 47.449l-0.66797-0.39844c-0.26563-0.26563-0.53125-0.39844-0.80078-0.66797-0.13281 0-0.53125-0.39844-0.26562-0.13281 0.39844 0.26562-0.13281-0.13281-0.13281-0.13281-0.53125-0.39844-0.93359-0.80078-1.4648-1.1992-1.332-1.1992-2.6641-2.5312-3.8633-4 22.656-20.926 44.648-43.184 59.176-70.105 10.395-19.461 15.859-41.184 15.727-63.309 0-2.9336 0.13281-5.8633 0-8.9297-0.26563-5.4648 0-10.93 0.53125-16.262 1.332-10.93 4.3984-21.594 8.3984-31.723 5.7305-14.66 13.594-28.391 22.391-41.316 17.859-26.391 41.184-49.316 67.707-66.906 26.258-17.328 57.047-31.453 88.633-35.32 29.855-3.5977 63.441 2.6641 79.172 31.055 12.262 22.125 10.531 46.914 2.6641 69.84 3.332-15.461 4.6641-31.59 1.1992-47.184zm-196.46 201.26h-0.13281c-21.457-1.8672-41.316-14.527-52.246-33.32-5.332-9.3281-8.6641-19.992-9.0625-30.922 0-0.66797 0-1.4648-0.13281-2.1328l0.13281-0.13281 6.5312-6.3984c7.4648 8.7969 15.062 17.594 22.793 26.125l-8.7969 7.8633c-2.5312 2.3984 1.1992 6.1328 3.7305 3.8633l8.6641-7.8633c4.7969 5.1992 9.5977 10.262 14.527 15.328l1.1992 1.1992c-2.1328 2.2656-4.1328 4.3984-6.2656 6.5312-2.3984 2.5312 1.4648 6.2656 3.8633 3.7305 2-2.1328 4.1328-4.2656 6.1328-6.3984l9.7305 9.7305c2.5312 2.3984 6.2656-1.4648 3.8633-3.8633-3.332-3.1992-6.6641-6.3984-9.8633-9.7305 1.5977-1.7344 3.332-3.332 4.9297-5.0664 1.0664 1.0664 2 2.1328 3.0664 3.1992 5.9961 6.2656 12.129 12.527 18.258 18.66 2.3984 2.3984 6.2656-1.332 3.8633-3.8633-7.332-7.1992-14.395-14.527-21.457-21.859 1.5977-1.7344 3.332-3.332 4.9297-5.0664 1.4648 1.4648 2.8008 2.9336 4.2656 4.2656 2.3984 2.5312 6.2656-1.1992 3.7305-3.7305-1.332-1.4648-2.8008-2.9336-4.2656-4.3984 3.8633-3.8633 7.5977-7.7305 11.461-11.594 2.3984 2.3984 4.9297 4.7969 7.332 7.332-2.8008 2.3984-5.7305 4.9297-8.5312 7.332-2.6641 2.2656 1.1992 6.1328 3.7305 3.8633 2.9336-2.5312 5.7305-4.9297 8.6641-7.4648l6.9336 6.9336-15.594 14.66c-2.5312 2.2656 1.1992 6.1328 3.7305 3.7305l15.727-14.527c2.5312 2.5312 5.1992 5.1992 7.7305 7.7305-2 1.8672-4.1328 3.7305-6.2656 5.5977-2.5312 2.2656 1.332 5.9961 3.8633 3.7305 2-1.8672 4.1328-3.7305 6.1328-5.4648l2 1.8672c2.3984 2.3984 6.1328-1.332 3.7305-3.7305l-1.5977-1.7344c2.3984-2.2656 4.9297-4.5312 7.4648-6.7969 1.7344 1.7344 3.5977 3.332 5.4648 5.0664 2.5312 2.2656 6.2656-1.4648 3.7305-3.8633-1.7344-1.5977-3.4648-3.1992-5.1992-4.7969 3.4648-3.1992 6.9297-6.3984 10.531-9.5977 4.5312 4.2656 9.0625 8.5312 13.727 12.66-10.664 7.1992-21.992 13.328-33.855 18.258-16.66 7.0625-33.988 10.531-51.715 13.195-3.7305 0.66797-7.4648 1.1992-11.195 1.8672zm-61.176-74.238c0.13281-1.8672 0.39844-3.7305 0.66797-5.4648l2.2656 2.6641zm1.8672-12.395c0.66797-2.5312 1.332-5.0664 2-7.5977 2.5312 2.9336 5.0664 5.8633 7.5977 8.7969l-4.7969 4.6641c-1.5977-2-3.0664-3.8633-4.6641-5.7305l-0.13281-0.13281zm3.7305-13.594 0.39844-1.0664c0.66797-2.1328 1.332-4.1328 2-6.1328 4 4.5312 7.9961 9.0625 11.996 13.594l-4.6641 4.6641c-3.1992-3.5977-6.2656-7.1992-9.3281-10.797-0.13281-0.13281-0.26563-0.26562-0.39844-0.26562zm4.5312-12.93c0.66797-1.5977 1.1992-3.1992 2-4.7969 0.53125 0 1.0664-0.26562 1.5977-0.80078 12.395-12.93 24.789-25.988 37.188-38.918 2.3984-2.3984-1.4648-6.2656-3.8633-3.7305l-26.789 28.121c6.9297-11.195 15.594-21.727 24.125-31.32 5.0664-5.8633 10.395-11.461 15.992-16.793 0.13281-0.13281 0.26562-0.26563 0.53125-0.39844l1.5977-1.4648 11.328 10.129c-2.8008 2.9336-5.5977 5.8633-8.3984 8.9297l-4.9297-4.5312c-2.5312-2.2656-6.2656 1.4648-3.7305 3.8633l5.0664 4.5312c-5.8633 6.2656-11.461 12.66-17.195 19.191-2.1328 2.5312 1.5977 6.3984 3.8633 3.7305 5.5977-6.5312 11.461-12.93 17.328-19.324l9.4648 8.6641-12.129 11.863c-1.7344-0.53125-3.7305 1.332-3.332 3.1992l-11.062 10.93c-4.1328-4.6641-8.2617-9.1953-12.395-13.863-2.2656-2.6641-6.1328 1.1992-3.8633 3.7305 4.1328 4.6641 8.2617 9.3281 12.395 13.863l-8.2617 8.1289-0.93359-0.93359c-2.5312-2.3984-6.2656 1.332-3.7305 3.7305l0.93359 0.93359-9.1953 8.9297c-4.3984-5.0664-8.9297-10.129-13.328-15.328-0.13281 0-0.13281-0.13281-0.26562-0.26562zm56.246-73.707c5.8633-5.1992 11.863-10.129 18.125-14.793 2.9336 2.9336 5.7305 5.8633 8.6641 8.7969-5.1992 5.1992-10.395 10.531-15.594 15.859zm22.523-17.992c1.8672-1.332 3.7305-2.6641 5.7305-4 5.5977-3.8633 11.461-7.4648 17.461-10.797h0.13281l4.6641 4.2656c-6.6641 6.2656-13.328 12.395-19.859 18.793-2.8008-2.6641-5.4648-5.4648-8.1289-8.2617zm28.258-17.594c4.6641-2.5312 9.4648-4.7969 14.262-7.0625l2.8008-1.1992c-4.5312 3.8633-8.9297 7.8633-13.328 11.73l-3.7305-3.4648zm30.922-13.996c3.5977-1.1992 7.332-2.3984 11.062-3.332 0.26563 0.53125 0.66797 1.0664 1.1992 1.4648 1.332 0.93359 2.5312 1.8672 3.8633 2.9336l-11.863 11.594c-2.9336-2.6641-5.9961-5.1992-8.9297-7.8633 1.1992-1.0664 2.5312-2.1328 3.7305-3.1992 0.53125-0.53125 0.93359-1.0664 0.93359-1.5977zm17.328-4.7969c1.332-0.26562 2.6641-0.39844 4-0.66797 7.1992-1.0664 14.527-2 21.727-2.2656 13.863-0.53125 28.121 1.1992 39.586 9.4648 10.262 7.1992 17.195 18.793 20.66 30.789 2 6.7969 2.8008 13.727 2.9336 20.793-5.332-5.0664-10.797-10.129-16.129-15.195 2.2656-1.8672 4.3984-3.7305 6.6641-5.7305 2.6641-2.2656-1.1992-5.9961-3.7305-3.7305-2.2656 1.8672-4.5312 3.8633-6.7969 5.8633-1.8672-1.7344-3.5977-3.332-5.332-5.0664-2.5312-2.3984-6.2656 1.4648-3.7305 3.8633 1.5977 1.4648 3.332 3.0664 4.9297 4.6641-8.3984 7.1992-16.793 14.395-25.324 21.594-4.5312-4.2656-9.1953-8.3984-13.863-12.66l12.262-12.262c2.3984 2.3984 4.6641 4.7969 6.9297 7.1992 2.3984 2.3984 6.2656-1.332 3.8633-3.8633-2.2656-2.3984-4.6641-4.7969-6.9297-7.0625l12.129-12.129c1.0664-1.0664 1.0664-2.8008 0-3.8633-3.8633-4.2656-8.3984-7.9961-13.328-10.93-3.0664-1.8672-5.7305 2.8008-2.8008 4.5312 3.8633 2.3984 7.332 5.1992 10.531 8.2617l-10.395 10.395c-4.2656-4.1328-8.5312-8.1289-13.062-11.996l5.1992-5.1992c2.5312-2.3984-1.332-6.2656-3.7305-3.7305-1.8672 1.7344-3.5977 3.5977-5.4648 5.4648-4.6641-4-9.3281-7.7305-14.129-11.461 0.39844-2-2-4.1328-3.8633-2.9336-0.93359-0.66797-1.8672-1.4648-2.8008-2.1328zm88.367 70.508c-0.53125 4-1.0664 7.9961-1.8672 11.996-1.4648 6.9297-3.0664 13.863-5.332 20.66-4.6641-4.3984-9.3281-8.7969-13.996-13.062l21.191-19.594zm-9.0625 38.254c-0.53125 1.4648-1.1992 3.0664-1.8672 4.5312-3.8633 3.5977-7.7305 7.1992-11.594 10.797l-7.1992-6.6641c3.5977-3.7305 7.1992-7.4648 10.797-11.328 2.3984-2.3984-1.4648-6.2656-3.7305-3.7305-3.7305 3.8633-7.332 7.5977-11.062 11.461l-6.5312-5.9961 9.4648-8.7969 5.7305-5.332c5.332 4.9297 10.664 9.9961 15.992 15.062zm-8.7969 18.395-0.53125 0.80078-0.13281-0.13281 0.66797-0.66797zm-239.64 122.22c1.8672-3.8633 3.8633-7.7305 5.8633-11.461 2.2656 1.7344 4.5312 3.4648 6.9297 5.0664-4.3984 2-8.5312 4.1328-12.797 6.3984zm-7.8633-2.1328 0.39844-1.0664 3.1992 1.1992c-0.66797 1.4648-1.332 3.0664-2 4.6641l-3.4648-1.1992c0.66797-1.1992 1.1992-2.3984 1.8672-3.5977zm2.6641-5.8633c0.39844-0.80078 0.66797-1.4648 0.93359-2.1328 1.1992 0.39844 2.2656 0.80078 3.4648 1.0664-0.39844 0.66797-0.80078 1.4648-1.0664 2.2656zm2.9336-7.1992c0.26562-0.93359 0.53125-1.8672 0.80078-2.8008 1.1992 1.1992 2.3984 2.2656 3.5977 3.4648l-0.26562 0.53125c-0.13281 0-0.39844-0.13281-0.53125-0.13281-1.1992-0.26562-2.5312-0.53125-3.5977-1.0664zm-8.9297 21.727-1.5977 1.0664 0.66797-1.332 0.93359 0.26562zm36.785-16.262c-10.262-5.5977-19.191-12.93-26.656-21.727-0.13281 0-0.13281-0.13281-0.26562-0.13281 0-0.13281 0-0.13281-0.13281-0.13281-1.0664-1.332-2.3984-1.7344-3.5977-1.5977-2.3984 0-4.7969 1.4648-4.6641 4.5312 0.39844 9.1953-4.3984 17.727-8.3984 25.723-3.7305 7.7305-7.9961 15.195-12.527 22.523-1.7344 2.9336 0 5.5977 2.5312 6.6641 1.1992 1.0664 3.0664 1.4648 4.9297 0 14.527-10.797 30.121-19.859 46.781-27.191 4-0.39844 6.3984-6.2656 2-8.6641zm234.71-126.09 1.4648 0.80078h0.13281c-0.66797 1.8672-1.332 3.5977-2 5.332l-2.2656-1.1992 0.13281-0.13281c0.80078-1.5977 1.7344-3.1992 2.5312-4.7969zm-26.125 50.113c-1.1992 1.4648-2.3984 3.0664-3.7305 4.5312l-4.1328-4.5312c1.332-1.4648 2.5312-2.9336 3.8633-4.5312zm-7.0625 8.6641c-1.0664 1.1992-2.1328 2.5312-3.332 3.7305l-0.13281-0.26563-4.1328-4.2656c1.1992-1.1992 2.2656-2.5312 3.332-3.7305zm-6.7969 7.5977c-1.332 1.4648-2.6641 2.8008-4 4.2656-0.93359-0.93359-1.8672-2-2.6641-3.0664-0.53125-0.53125-0.93359-1.1992-1.332-1.8672 1.1992-1.1992 2.3984-2.5312 3.5977-3.7305l4 4.1328c0.13281 0.13281 0.26562 0.13281 0.39844 0.26562zm-7.7305 7.9961c-1.4648 1.4648-2.9336 2.9336-4.3984 4.2656-0.13281-0.26562-0.26562-0.66797-0.53125-0.93359l-3.332-4c1.332-1.332 2.8008-2.6641 4.1328-4.1328 1.1992 1.7344 2.5312 3.332 4.1328 4.7969zm-7.9961 7.7305c-1.332 1.1992-2.5312 2.3984-3.8633 3.4648l-3.8633-5.0664c1.1992-1.0664 2.3984-2.1328 3.5977-3.1992l3.332 4.2656c0.26562 0.13281 0.53125 0.39844 0.80078 0.53125zm-7.8633 7.0625c-1.5977 1.332-3.0664 2.6641-4.6641 4-1.5977-1.4648-3.1992-3.0664-4.5312-4.6641 1.7344-1.4648 3.5977-2.9336 5.332-4.5312l3.332 4.5312c0.13281 0.26562 0.39844 0.39844 0.53125 0.66797zm-8.9297 7.4648c-1.7344 1.4648-3.5977 2.8008-5.4648 4.2656l-3.8633-5.332c1.5977-1.1992 3.1992-2.5312 4.9297-3.7305 1.332 1.7344 2.8008 3.332 4.3984 4.7969zm-9.7305 7.4648c-1.4648 1.0664-2.9336 2.1328-4.3984 3.1992l-3.7305-5.7305c1.4648-0.93359 2.8008-1.8672 4.1328-2.9336l3.8633 5.1992zm-8.7969 6.1328c-1.7344 1.1992-3.5977 2.3984-5.4648 3.5977l-3.0664-6.3984c1.5977-0.93359 3.1992-2 4.7969-2.9336l3.7305 5.7305zm-9.9961 6.3984c-0.80078 0.53125-1.7344 1.0664-2.6641 1.4648l-1.4648 0.93359c-0.66797-1.1992-1.332-2.3984-1.8672-3.7305-0.39844-0.93359-0.80078-2-1.0664-2.9336 1.332-0.80078 2.6641-1.4648 3.8633-2.2656zm-8.7969 4.9297c-1.4648 0.80078-3.0664 1.5977-4.5312 2.3984v-0.13281c-0.93359-1.4648-1.7344-2.9336-2.3984-4.5312-0.26562-0.66797-0.53125-1.4648-0.80078-2.1328 1.5977-0.66797 3.1992-1.4648 4.6641-2.2656 0.80078 2.2656 1.7344 4.5312 3.0664 6.6641zm-9.4648 4.6641c-1.332 0.53125-2.6641 1.1992-4.1328 1.7344-1.0664-1.8672-2-3.7305-2.9336-5.7305l-0.26562-0.93359c1.332-0.53125 2.8008-1.1992 4.2656-1.8672 0.80078 2.3984 1.8672 4.6641 3.0664 6.7969zm-9.0625 3.8633c-1.1992 0.39844-2.2656 0.80078-3.332 1.1992-0.80078 0.26562-1.4648 0.53125-2.2656 0.66797-0.39844-1.4648-1.0664-2.8008-1.7344-4.2656-0.39844-0.80078-0.93359-1.5977-1.332-2.2656 1.7344-0.66797 3.5977-1.332 5.4648-2.1328 0.80078 2.3984 1.8672 4.5312 3.1992 6.7969zm-10.664 3.4648c-1.4648 0.53125-2.9336 0.93359-4.3984 1.1992-0.13281-0.13281-0.13281-0.26562-0.13281-0.39844l-2.9336-5.7305c1.332-0.53125 2.8008-0.93359 4.1328-1.4648 1.0664 1.4648 2 3.0664 2.6641 4.6641 0.26562 0.53125 0.39844 1.1992 0.66797 1.7344zm-9.7305 2.5312c-1.332 0.26562-2.5312 0.53125-3.8633 0.80078v-0.13281c-0.66797-2-1.4648-3.8633-2.3984-5.7305 1.0664-0.26562 2.1328-0.66797 3.332-0.93359l2.9336 5.9961zm-9.1953 1.7344c-1.0664 0.26562-2.2656 0.39844-3.4648 0.66797-0.66797-1.8672-1.1992-3.7305-1.7344-5.5977l2.6641-0.53125c0.66797 1.0664 1.332 2.3984 1.8672 3.5977 0.26562 0.66797 0.53125 1.1992 0.66797 1.8672zm-8.7969 1.4648c-1.4648 0.13281-2.9336 0.39844-4.3984 0.53125h-0.53125c0-0.26562 0-0.53125-0.13281-0.80078l-0.66797-4.2656c1.332-0.26562 2.8008-0.53125 4.1328-0.80078 0.39844 1.8672 0.93359 3.5977 1.5977 5.332zm-10.129 1.332c-1.1992 0.13281-2.3984 0.39844-3.5977 0.53125v-0.39844c-0.39844-1.4648-0.80078-2.9336-1.332-4.5312l4.1328-0.53125 0.66797 4.7969 0.13281 0.13281zm-8.7969 1.4648c-1.1992 0.13281-2.2656 0.39844-3.332 0.53125 0-0.13281 0-0.26562-0.13281-0.39844l-1.5977-4.3984 3.5977-0.66797c0.53125 1.5977 1.0664 3.1992 1.4648 4.9297zm-8.5312 1.5977c-1.0664 0.26562-2.2656 0.53125-3.332 0.80078v-0.26562l-2.3984-4.6641c1.332-0.26562 2.5312-0.53125 3.8633-0.66797l1.7344 4.7969zm-8.6641 2c-1.1992 0.39844-2.3984 0.66797-3.5977 1.0664 0-0.13281-0.13281-0.26562-0.26562-0.39844l-1.8672-4.6641c1.0664-0.26562 2.2656-0.53125 3.332-0.80078zm-8.7969 2.5312c-1.1992 0.26562-2.3984 0.66797-3.5977 1.0664l-0.13281-0.39844-2.1328-4.6641c1.1992-0.39844 2.3984-0.80078 3.7305-1.1992l2.1328 5.1992zm-8.6641 2.6641c-1.4648 0.53125-3.0664 1.0664-4.5312 1.5977 0-0.53125-0.13281-0.93359-0.39844-1.1992-0.53125-1.332-1.1992-2.5312-2.1328-3.7305 1.5977-0.53125 3.1992-1.1992 4.6641-1.7344zm-9.3281 3.332c-1.5977 0.66797-3.1992 1.1992-4.7969 1.8672l-0.13281-0.26562-2.2656-4.1328c0.93359-0.53125 2-0.93359 3.0664-1.4648l1.332-0.53125 0.39844 0.53125c0.93359 1.1992 1.5977 2.3984 2.1328 3.7305 0.13281 0.13281 0.13281 0.13281 0.26562 0.26562zm-9.7305 4c-0.93359 0.39844-2 0.80078-2.9336 1.332l-1.4648-3.5977c-0.13281-0.26562-0.26562-0.53125-0.39844-0.66797l2.3984-1.332zm-7.7305 3.5977c-1.0664 0.53125-2.1328 1.0664-3.1992 1.5977-0.93359-1.1992-1.5977-2.3984-2.1328-3.5977 1.1992-0.66797 2.3984-1.332 3.5977-2.1328zm-7.9961 4-2.1328 1.1992c-0.66797-1.0664-1.4648-2-2.3984-2.9336 0.93359-0.53125 1.7344-1.0664 2.5312-1.5977 0.53125 1.1992 1.1992 2.3984 2 3.332zm-6.7969 3.8633-0.66797 0.39844-1.7344 1.0664-2-2.8008 2.1328-1.332c0.80078 0.80078 1.4648 1.5977 2.1328 2.5312zm-6.9297 4.2656-2 1.332-2.1328-2.3984 2.2656-1.5977zm-6.3984 4.2656c-1.0664 0.80078-2.1328 1.5977-3.1992 2.2656-0.66797-0.66797-1.332-1.332-2-2.1328l0.93359-0.66797 2.1328-1.5977zm-7.5977 5.4648c-1.0664 0.80078-2.1328 1.7344-3.1992 2.5312l-1.8672-2.1328c1.0664-0.80078 2.1328-1.7344 3.1992-2.5312 0.53125 0.80078 1.1992 1.4648 1.8672 2.1328zm-7.332 5.8633-2.9336 2.3984h-0.13281c-0.53125-0.66797-1.1992-1.4648-1.8672-2.1328l2.9336-2.3984zm-7.1992 5.8633-2 1.7344c-0.13281 0-0.13281-0.13281-0.26562-0.13281-0.66797-0.53125-1.332-1.0664-2-1.7344l2.3984-2c0.53125 0.39844 0.93359 0.93359 1.332 1.4648 0.26562 0.26562 0.39844 0.53125 0.53125 0.66797zm-6.1328 5.332-3.1992 2.8008c-0.13281-0.13281-0.26562-0.26562-0.53125-0.39844l-1.8672-1.4648 3.332-2.9336c0.80078 0.66797 1.4648 1.332 2.2656 2zm-7.1992 6.3984-3.0664 2.9336-2.3984-2.1328 2.9336-2.5312 2.5312 1.7344zm-7.0625 6.5312-2.1328 2.1328c-0.13281-0.13281-0.26562-0.13281-0.39844-0.26562l-2.2656-1.7344 2.3984-2.1328zm-5.9961 5.8633-4.2656 4-2-2.6641 3.5977-3.332 2.6641 2zm-7.9961 7.7305-2.9336 2.9336c-0.26562-0.53125-0.53125-0.93359-1.0664-1.1992-0.26562-0.13281-0.53125-0.26562-0.80078-0.39844-0.26562-0.26562-0.53125-0.53125-0.66797-0.80078l3.332-3.1992 2.1328 2.6641zm-6.5312 6.5312-4 3.8633c-0.13281-0.13281-0.26562-0.39844-0.53125-0.66797l-1.8672-1.8672 3.5977-3.5977c0.13281 0.26562 0.39844 0.53125 0.66797 0.66797 0.39844 0.39844 0.80078 0.66797 1.1992 0.93359 0.26563 0.26562 0.53125 0.39844 0.80078 0.53125l0.13281 0.13281zm-7.5977 7.4648-3.5977 3.7305-1.0664 0.93359-2.8008-2.3984 4.7969-4.6641 2 2c0.13281 0.13281 0.39844 0.39844 0.66797 0.39844zm-8.3984 8.5312-3.7305 3.7305-2.8008-2.5312 3.5977-3.7305zm-7.4648 7.5977-3.0664 3.0664-2.6641-3.0664 2.8008-2.6641 2.9336 2.6641zm-6.7969 6.9297-4.2656 4.3984-2.9336-3.0664 4.5312-4.3984 2.6641 3.0664zm-7.9961 8.2617-4.9297 5.1992-2.8008-3.5977 4.6641-4.6641 3.0664 3.0664zm-8.6641 9.1953c-2 2.1328-4 4.2656-5.9961 6.5312-0.80078-0.80078-1.5977-1.4648-2.2656-2.2656-0.39844-0.53125-0.66797-1.0664-1.0664-1.5977l6.3984-6.3984 2.9336 3.7305zm-9.7305 10.395c-1.8672 2-3.7305 4.1328-5.5977 6.1328-1.0664-0.80078-1.8672-1.8672-2.6641-2.9336-0.39844-0.26562-0.66797-0.66797-0.93359-1.0664l5.8633-5.8633c0.39844 0.66797 0.93359 1.332 1.4648 1.8672 0.66797 0.66797 1.1992 1.332 1.8672 1.8672zm-9.1953 10.129-0.13281 0.13281-4.7969 5.1992-4.1328-4 5.332-5.4648c1.0664 1.4648 2.2656 2.9336 3.7305 4.1328zm-8.3984 9.3281-4.5312 5.0664c-1.4648-1.4648-2.9336-2.9336-4.5312-4.2656l4.6641-4.9297 4.1328 4 0.26562 0.13281zm-8.1289 9.0625c-2 2.2656-4 4.5312-5.8633 6.7969-0.13281-0.13281-0.26562-0.26562-0.39844-0.39844-1.5977-1.4648-3.0664-2.9336-4.5312-4.3984l6.1328-6.3984c1.5977 1.332 3.0664 2.6641 4.3984 4.2656l0.26562 0.13281zm-9.3281 10.664-0.80078 0.93359c-1.5977 1.8672-3.1992 3.7305-4.6641 5.5977l-5.1992-5.4648 5.4648-5.8633c1.4648 1.4648 2.9336 2.9336 4.3984 4.2656 0.26562 0.26562 0.53125 0.39844 0.80078 0.53125zm-9.0625 10.664c-1.1992 1.332-2.5312 2.6641-3.8633 4-0.26562 0.26563-0.66797 0.53125-0.93359 0.80078-0.13281-0.13281-0.13281-0.26562-0.26562-0.39844l-4.7969-5.1992 4.5312-4.9297 5.332 5.7305zm-9.4648 7.5977c-2.1328 0.80078-4.3984 1.0664-6.9297 0.26562-0.39844 0-0.66797-0.26562-1.0664-0.39844l4-4.3984 4 4.5312zm421.71-308.29c1.0664-1.4648 2.2656-2.9336 3.332-4.3984 1.0664 1.1992 2.1328 2.2656 3.4648 3.1992 0.13281 0.26562 0.39844 0.39844 0.66797 0.53125-1.1992 1.7344-2.3984 3.4648-3.5977 5.0664l-3.8633-4.3984zm6.5312-8.7969c0.93359-1.332 1.8672-2.5312 2.8008-3.8633l4.1328 2.9336c-0.93359 1.5977-2 3.0664-3.0664 4.6641-1.332-1.0664-2.6641-2.3984-3.8633-3.7305zm5.8633-8.2617c1.0664-1.7344 2.1328-3.332 3.1992-5.0664 1.1992 0.80078 2.3984 1.5977 3.7305 2-1.0664 2-2.1328 3.8633-3.1992 5.7305zm6.1328-9.7305c1.0664-1.5977 2-3.332 2.9336-4.9297l2.3984 1.332c0.13281 0 0.26562 0.13281 0.39844 0.13281-0.80078 1.8672-1.7344 3.5977-2.5312 5.332-0.13281 0-0.26563-0.13281-0.39844-0.13281-0.26562 0-0.39844-0.13281-0.53125-0.13281-0.53125-0.26562-1.0664-0.66797-1.5977-0.93359l-0.66797-0.66797zm-465.82 312.95 3.5977-3.332 0.66797 0.66797c1.332 1.1992 2.6641 2.3984 4 3.5977l7.5977 7.1992-3.0664 3.332-12.797-11.461zm7.4648-7.0625 3.4648-3.1992 11.461 11.461-2.9336 3.0664-7.0625-6.6641c-1.1992-1.1992-2.3984-2.2656-3.5977-3.4648-0.39844-0.39844-0.80078-0.80078-1.332-1.1992zm7.332-6.7969 3.332-3.0664 11.195 10.664-3.332 3.4648zm7.1992-6.7969 3.8633-3.5977c3.7305 3.332 7.1992 6.7969 10.664 10.395l-3.4648 3.7305-11.062-10.531zm7.7305-7.1992 3.7305-3.4648c3.4648 3.1992 6.7969 6.6641 9.9961 10.262l-3.332 3.332c-3.332-3.4648-6.7969-6.9297-10.395-10.129zm7.5977-7.0625 2.5312-2.3984 9.9961 9.5977-2.6641 2.6641c-3.0664-3.4648-6.3984-6.7969-9.8633-9.8633zm6.5312-6.1328 2.8008-2.6641c2.9336 3.332 6.1328 6.5312 9.4648 9.4648l-2.5312 2.6641c-3.332-3.0664-6.5312-6.2656-9.7305-9.4648zm6.6641-6.2656 3.0664-2.9336 9.3281 9.0625-3.0664 3.0664c-3.332-2.8008-6.3984-5.8633-9.3281-9.1953zm7.0625-6.5312 3.0664-3.0664c2.9336 3.0664 5.8633 5.9961 8.9297 8.7969l-2.9336 3.0664zm7.0625-6.6641 2.8008-2.6641 8.3984 8.7969-2.5312 2.5312c-3.0664-2.8008-5.9961-5.5977-8.6641-8.6641zm6.6641-6.2656 3.0664-2.8008c2.6641 2.8008 5.5977 5.4648 8.3984 8.1289l-3.1992 3.1992-8.2617-8.5312zm6.9297-6.5312 2.1328-2c2.5312 2.8008 5.1992 5.5977 7.9961 8.2617l-1.7344 1.8672c-2.9336-2.6641-5.7305-5.332-8.3984-8.1289zm6.1328-5.7305 2.9336-2.6641c2.3984 2.8008 5.1992 5.332 7.9961 7.8633l-3.0664 3.0664c-2.8008-2.6641-5.4648-5.332-7.8633-8.2617zm6.7969-6.3984 2.3984-2.1328c2.6641 2.5312 5.4648 4.9297 8.5312 7.0625l-2.9336 2.8008c-2.8008-2.3984-5.4648-4.9297-7.9961-7.7305zm6.2656-5.8633 2.8008-2.6641c2.5312 2.6641 5.1992 5.1992 7.8633 7.4648l-2.1328 2.1328c-0.80078-0.53125-1.5977-1.1992-2.3984-1.7344-0.26562-0.13281-0.53125-0.39844-0.80078-0.53125-0.13281-0.13281-0.13281-0.13281-0.26562-0.26562-0.53125-0.39844-1.0664-0.80078-1.4648-1.1992-1.332-1.0664-2.3984-2.1328-3.5977-3.1992zm6.7969-6.2656 2.9336-2.8008c2.3984 2.5312 5.0664 4.9297 7.7305 7.332l-2.9336 2.8008c-2.6641-2.2656-5.332-4.7969-7.7305-7.332zm6.7969-6.3984 2.9336-2.5312c2.1328 2.6641 4.9297 4.6641 7.4648 7.0625l-2.8008 2.6641c-2.5312-2.3984-5.0664-4.6641-7.5977-7.1992zm6.9297-6.2656 2-1.8672c2.5312 2.1328 5.0664 4.3984 7.4648 6.6641l-2.2656 2.2656c-1.1992-1.332-2.6641-2.5312-4.1328-3.7305-0.93359-0.80078-1.8672-1.7344-2.6641-2.6641l-0.26562-0.26562v-0.13281s-0.13281-0.13281-0.13281-0.26562zm5.9961-5.4648 1.5977-1.4648c2.1328 2.3984 4.6641 4.6641 7.332 6.5312l-1.5977 1.4648c-2.3984-2.2656-4.7969-4.3984-7.332-6.5312zm326.14-192.73c-13.727 20.391-30.254 39.32-48.781 55.445-1.8672-1.8672-3.7305-3.7305-5.7305-5.5977 17.059-16.527 34.254-33.055 51.445-49.316l1.8672-1.7344 1.1992 1.1992zm-52.914 59.043c-3.4648 2.9336-7.1992 5.8633-10.93 8.6641-2 1.4648-4.1328 3.0664-6.2656 4.5312-4.7969-4.3984-9.5977-8.7969-14.395-13.328 4.3984-3.8633 8.6641-7.9961 12.93-11.996 0.93359-0.93359 2-1.8672 3.0664-2.8008 2.1328 1.8672 4.1328 3.8633 6.2656 5.8633-3.0664 2.9336-6.1328 5.9961-9.1953 9.0625-2.5312 2.3984 1.1992 6.1328 3.7305 3.7305 3.0664-3.0664 6.2656-6.1328 9.3281-9.1953 1.8672 1.8672 3.7305 3.5977 5.4648 5.4648zm85.301-176.07c-14.129-29.32-45.582-41.586-76.637-41.051-32.922 0.66797-65.441 13.062-93.832 29.188-32.254 18.527-60.379 43.984-81.969 74.238-12.527 17.594-23.324 36.785-29.988 57.445-2.3984 7.7305-4.2656 15.594-5.332 23.723-1.332 10.262-0.66797 20.527-1.1992 30.789 1.0664 40.117-23.723 74.637-50.914 102.23-31.188 31.59-64.641 61.176-97.031 91.434l-57.18 53.715c-2.1328 1.8672-2.1328 5.7305 0 7.5977 6.9297 6.2656 13.996 12.527 20.926 18.793 0.66797 0.66797 1.4648 1.0664 2.2656 1.332 2.5312 2.8008 6.3984 4.2656 10.129 4.2656 5.5977 0 10.395-3.0664 14.129-6.9297 4.5312-4.3984 8.3984-9.4648 12.527-14.262 4.3984-5.0664 8.7969-9.9961 13.195-15.062 17.859-19.992 36.121-39.586 54.914-58.777 18.395-18.793 37.188-37.586 56.777-55.18 9.4648-8.3984 19.324-16.527 29.855-23.723 10.395-7.0625 21.457-13.195 32.922-18.395 22.656-9.9961 47.051-16.129 71.707-18.793 24.789-2.8008 48.25-11.328 69.574-24.391 12.527-7.4648 24.258-16.395 35.32-25.855 28.523-24.523 53.848-54.246 67.574-89.832 7.0625-18.395 10.797-38.254 10.129-57.977 1.1992-15.062-1.0664-30.121-7.8633-44.516zm-278.43 78.238c-3.7305 3.5977-8.3984 6.1328-13.062 8.5312-5.0664 2.5312-10.395 4.7969-15.594 7.1992-10.93 4.9297-21.992 9.8633-33.055 14.66-6.2656 2.6641-12.395 5.332-18.66 7.9961-1.332 0.53125-2.2656 1.7344-1.8672 3.1992 0.26562 1.332 1.8672 2.5312 3.1992 1.8672 22.656-9.4648 45.316-19.059 67.441-29.723 5.5977-2.6641 10.93-5.7305 15.461-9.8633 2.5312-2.3984-1.332-6.1328-3.8633-3.8633zm43.184-56.512c-25.59-9.8633-51.715-17.992-78.238-24.391-7.4648-1.8672-15.062-3.4648-22.523-5.0664-3.332-0.66797-4.7969 4.5312-1.4648 5.1992 26.789 5.4648 53.18 12.66 79.035 21.457 7.332 2.5312 14.527 5.1992 21.727 7.8633 1.332 0.53125 2.9336-0.53125 3.332-1.8672 0.39844-1.4648-0.53125-2.6641-1.8672-3.1992zm-28.121 26.523c-19.992 1.4648-39.984 2.1328-60.109 1.8672-3.4648 0-3.4648 5.332 0 5.332 20.125 0.26562 40.117-0.39844 60.109-1.8672 3.4648-0.13281 3.4648-5.5977 0-5.332zm-86.766 8.5312c-3.8633 25.59-23.324 46.781-48.648 52.379-5.9961 1.332-19.059 3.4648-24.258-0.66797-2.2656-1.7344-4.6641-4.1328-6.6641-6.1328-3.0664-2.9336-5.5977-6.3984-7.5977-10.262-3.8633-7.4648-5.0664-16.395-3.1992-24.656 3.7305-15.594 15.461-24.523 30.121-29.32 12.797-4.1328 26.789-7.4648 35.586-18.395 3.7305-4.6641 5.7305-10.129 5.9961-15.594 14.129 13.195 21.594 33.188 18.66 52.648zm-117.02 21.859c-12.262-18.926-8.2617-48.914 4.1328-66.906 6.6641-9.8633 22.523-17.594 33.586-20.66 15.727-4.1328 32.789-3.5977 47.449 3.7305 0 0 0 0.13281 0.13281 0.26562 4.9297 5.8633 2.2656 14.395-2.5312 19.324-5.332 5.7305-13.062 8.3984-20.258 10.797-13.996 4.3984-27.324 8.5312-36.785 20.527-13.195 16.527-13.328 38.254-3.0664 54.914-9.0625-5.5977-16.926-13.195-22.656-21.992zm103.56-84.367c-35.719-30.254-97.695-17.992-115.55 26.125-5.8633 14.527-8.2617 30.922-4.6641 46.25 7.0625 29.723 39.852 53.578 69.84 54.645 31.055 1.0664 59.312-18.926 70.375-47.715 10.664-27.457 2.6641-60.109-19.992-79.305zm267.23-0.80078c4.6641 3.5977 9.1953 7.332 13.727 11.195-4.1328 4.1328-8.3984 8.2617-12.527 12.527-1.5977-1.4648-3.1992-2.8008-4.7969-4.2656-2.8008-2.5312-5.7305-5.0664-8.5312-7.5977l12.129-11.863zm-89.301 87.699 11.996 10.93c-2.6641 2.5312-5.332 4.9297-7.9961 7.4648-1.8672 1.7344-3.7305 3.4648-5.7305 5.332-3.5977-3.8633-7.0625-7.8633-10.664-11.73zm-16.129 15.727c3.4648 3.8633 6.9297 7.7305 10.531 11.594-3.7305 3.332-7.4648 6.6641-11.062 10.129-1.5977-1.7344-3.0664-3.332-4.6641-4.9297-1.8672-2.1328-3.7305-4.1328-5.5977-6.1328l10.797-10.664zm-14.66 14.395c3.332 3.5977 6.7969 7.332 10.129 10.93-2.2656 2-4.3984 4-6.6641 5.9961-0.39844 0.39844-0.66797 0.80078-0.80078 1.332-3.4648-3.4648-7.0625-6.9297-10.664-10.395l7.9961-7.8633zm-11.863 11.594c8.7969 8.5312 17.594 17.059 26.258 25.59l-11.328 10.129c-8.1289-8.6641-16.262-17.594-24.258-26.523zm-13.195 12.93c7.9961 8.9297 15.992 17.727 24.125 26.391l-5.0664 4.6641c-6.5312-7.0625-13.062-14.262-19.324-21.457-1.4648-1.5977-2.9336-3.332-4.3984-4.9297l4.6641-4.6641zm-8.5312 8.3984c7.7305 8.7969 15.594 17.594 23.59 26.258l-5.4648 4.7969c-5.9961-6.6641-11.996-13.328-17.727-20.125-1.7344-2.1328-3.4648-4.1328-5.1992-6.1328l4.7969-4.7969zm133.68-138.61-13.996 13.727-9.8633-8.9297c4.7969-4.3984 9.5977-8.6641 14.527-12.797 3.0664 2.6641 6.1328 5.332 9.3281 7.9961zm-17.859 17.461-19.859 19.594c-0.93359-0.93359-1.8672-1.7344-2.8008-2.6641l-7.1992-7.1992c6.5312-6.3984 13.195-12.66 19.992-18.793l9.8633 9.0625zm-23.723 23.324-6.3984 6.2656-8.7969 8.6641-3.8633-3.4648-6.3984-5.7305c5.0664-5.1992 10.262-10.395 15.461-15.594 3.332 3.332 6.6641 6.6641 9.9961 9.8633zm-19.059 18.66-8.7969 8.6641-3.1992-2.8008-6.5312-5.8633c2.8008-3.0664 5.5977-5.9961 8.3984-9.0625zm-4.9297 12.262 9.0625-8.6641 12.527 11.062c-3.0664 2.9336-6.2656 5.8633-9.3281 8.7969zm12.797-12.527 15.062-14.66c4.1328 4 8.2617 7.8633 12.527 11.863-4.9297 4.6641-9.8633 9.3281-14.926 13.996l-12.66-11.195zm18.926-18.395 18.926-18.66 0.93359-1.0664 13.062 11.996c-3.1992 3.1992-6.3984 6.2656-9.7305 9.3281-3.4648 3.4648-7.0625 6.7969-10.664 10.262-4.2656-4-8.3984-7.8633-12.527-11.863zm23.723-23.457 14.129-13.727c4.3984 3.8633 8.9297 7.7305 13.328 11.73-4.7969 4.6641-9.5977 9.3281-14.395 13.996l-8.5312-7.8633-4.5312-4.1328zm-71.707 129.29c4.6641 4.6641 9.3281 9.1953 13.996 13.727-3.7305 3.8633-7.5977 7.7305-11.328 11.594-4.7969-4.9297-9.4648-9.9961-14.262-14.926zm-15.594 13.996c2.3984 2.5312 4.7969 5.0664 7.1992 7.4648 2.5312 2.6641 4.9297 5.1992 7.332 7.7305-1.5977 1.7344-3.1992 3.332-4.9297 5.0664-4.9297-5.1992-9.8633-10.395-14.66-15.727l5.0664-4.5312zm-9.0625 8.1289c4.9297 5.332 9.8633 10.664 14.926 15.992-1.5977 1.7344-3.332 3.4648-4.9297 5.0664-5.1992-5.332-10.395-10.664-15.461-16.129zm144.34-166.2c4.3984 3.8633 8.7969 7.8633 12.93 11.996l-12.395 12.395c-4.3984-4-8.7969-7.8633-13.195-11.863 4.1328-4.1328 8.3984-8.2617 12.66-12.527zm-16.527 16.262c4.3984 4 8.7969 7.9961 13.195 11.863-4.7969 4.7969-9.5977 9.7305-14.527 14.527l-13.195-12.129c3.332-3.1992 6.5312-6.3984 9.8633-9.5977 1.4648-1.5977 3.0664-3.0664 4.6641-4.6641zm-18.395 17.992 13.328 12.129-1.0664 1.0664c-6.2656 6.2656-12.527 12.527-18.793 18.66-4.6641-4-9.1953-8.2617-13.727-12.395 6.7969-6.5312 13.594-12.93 20.258-19.461zm-24.125 23.191c4.5312 4.1328 9.0625 8.3984 13.727 12.527l-14.262 14.262-14.395-12.797c5.0664-4.6641 9.9961-9.3281 14.926-13.996zm-18.793 17.727 14.395 12.797-9.1953 9.1953-14.527-13.195c3.0664-2.9336 6.2656-5.8633 9.3281-8.7969zm-13.328 12.395 14.793 13.328c-4.9297 4.9297-9.8633 9.8633-14.793 14.66-3.332-3.4648-6.6641-6.9297-9.9961-10.531-1.332-1.4648-2.6641-2.9336-4.1328-4.3984 4.7969-4.2656 9.4648-8.6641 14.129-13.062zm-17.992 16.66c4.6641 5.0664 9.4648 10.129 14.262 15.195l-8.7969 8.6641c-0.93359 1.0664-0.93359 2.2656-0.26562 3.1992-5.4648-5.5977-10.93-11.195-16.262-16.926 3.7305-3.332 7.332-6.6641 11.062-10.129zm-15.062 13.727c9.4648 9.9961 19.059 19.859 28.789 29.59-2.2656 2.1328-4.3984 4.2656-6.5312 6.5312-9.7305-9.5977-19.461-19.191-29.32-28.789l-0.80078-0.80078c0.53125 0 0.93359-0.26562 1.4648-0.66797 2.1328-2 4.2656-3.8633 6.3984-5.8633zm124.89-86.234c4.5312 4.1328 9.1953 8.2617 13.727 12.395-5.332 4.5312-10.664 9.0625-15.992 13.461l-12.262-11.328c4.7969-4.7969 9.7305-9.5977 14.527-14.527zm-18.395 18.258 12.66 11.73c0.13281 1.1992 1.332 2.3984 2.8008 2.5312l11.328 10.531c-5.8633 5.5977-11.73 11.062-17.594 16.66l-1.7344 1.5977c-4.1328-3.332-8.2617-6.7969-12.395-10.395 1.4648-1.332 2.8008-2.5312 4.1328-3.8633 2.3984-2.3984-1.332-6.2656-3.8633-3.8633-1.332 1.4648-2.8008 2.8008-4.2656 4.2656-3.5977-3.0664-7.1992-6.2656-10.797-9.4648 6.5312-6.5312 13.195-13.062 19.727-19.727zm-23.59 23.457c3.5977 3.1992 7.1992 6.3984 10.797 9.4648-4.7969 4.7969-9.5977 9.4648-14.527 14.262l-10.531-9.4648zm-17.992 18.125 10.531 9.3281c-3.1992 3.0664-6.2656 6.1328-9.4648 9.3281l-10.395-9.4648 9.3281-9.1953zm-13.195 12.93 10.395 9.4648c-2.6641 2.8008-5.4648 5.5977-8.2617 8.2617-2.3984 2.3984-4.7969 4.9297-7.332 7.332-3.1992-3.332-6.5312-6.6641-9.7305-10.129 4.9297-4.9297 9.9961-9.8633 14.926-14.926zm-18.66 18.793c3.1992 3.332 6.3984 6.6641 9.7305 9.9961-3.4648 3.4648-6.7969 6.9297-10.262 10.395-3.8633-3.7305-7.5977-7.5977-11.328-11.461 0.93359 0.66797 2.1328 0.66797 3.1992-0.39844l8.6641-8.5312zm64.777-36.918c4 3.4648 8.1289 6.9297 12.262 10.395-5.0664 4.6641-10.262 9.4648-15.328 14.129l-11.594-10.262c4.9297-4.6641 9.7305-9.4648 14.66-14.262zm-18.395 18.125 4.1328 3.5977 7.1992 6.3984c-10.262 9.4648-20.66 18.926-31.055 28.258-3.1992-3.1992-6.2656-6.2656-9.3281-9.4648 9.3281-9.3281 18.66-18.527 27.988-27.855l1.0664-0.93359zm-32.922 32.656c3.0664 3.0664 6.1328 6.1328 9.1953 9.0625-3.5977 3.1992-7.332 6.3984-10.93 9.5977-2.8008-2.6641-5.7305-5.4648-8.5312-8.2617 3.4648-3.4648 6.9297-6.9297 10.262-10.395zm-13.996 14.129c2.8008 2.8008 5.4648 5.4648 8.2617 8.1289-2.2656 2-4.6641 4-6.9297 6.1328-2.6641-2.6641-5.1992-5.1992-7.7305-7.7305 1.4648-1.5977 3.0664-3.0664 4.6641-4.6641zm104.76-72.906 6.1328 5.7305-15.328 14.262-23.191 21.594-6.1328-5.4648c5.1992-4.7969 10.262-9.4648 15.461-14.262 1.332 1.0664 2.8008 2.2656 4.1328 3.4648 2.6641 2.1328 6.5312-1.5977 3.8633-3.8633-1.332-1.0664-2.8008-2.1328-4.1328-3.332 6.3984-5.9961 12.797-11.996 19.191-18.125zm-42.383 39.719 6.1328 5.4648-12.129 11.195c-2.1328-1.8672-4.2656-3.5977-6.3984-5.332 1.0664-1.0664 2.2656-2.1328 3.332-3.0664 3.0664-2.8008 5.9961-5.4648 9.0625-8.2617zm-16.395 14.926c2.1328 1.7344 4.3984 3.5977 6.5312 5.332l-15.195 14.129c-2.1328-2-4.2656-4-6.2656-5.9961 4.9297-4.5312 9.8633-8.9297 14.926-13.461zm-18.926 17.059c2 2 4.1328 4 6.2656 6.1328l-3.8633 3.4648-6.6641 6.2656c-2.2656-2-4.3984-4.1328-6.6641-6.3984 3.5977-3.0664 7.1992-6.2656 10.93-9.4648zm-14.926 13.062c1.4648 1.4648 3.0664 3.0664 4.6641 4.5312 0.66797 0.66797 1.332 1.332 2 2l-6.7969 6.3984c-2.2656-2.2656-4.6641-4.5312-6.9297-6.7969 2.3984-2 4.6641-4.1328 7.0625-6.1328zm129.55-128.22c-6.1328 5.9961-12.129 11.996-18.258 17.992-3.0664-2.9336-6.1328-5.7305-9.3281-8.6641 8.3984-7.0625 16.793-14.262 25.191-21.457 6.2656 5.8633 12.527 11.73 18.793 17.461l-24.125 22.391c-2.1328-2-4.3984-4.1328-6.5312-6.1328 5.9961-5.8633 11.996-11.863 17.992-17.859 2.5312-2.3984-1.332-6.1328-3.7305-3.7305zm-22.125 21.727c-4.9297 4.7969-9.8633 9.5977-14.926 14.395l-10.531-9.7305c5.332-4.5312 10.664-9.0625 15.859-13.461 3.1992 2.9336 6.3984 5.8633 9.5977 8.7969zm-10.93 17.992c1.332-1.332 2.6641-2.5312 4.1328-3.8633 3.5977-3.4648 7.1992-7.0625 10.797-10.531 1.7344 1.5977 3.4648 3.1992 5.1992 4.7969l1.332 1.1992-15.195 14.129zm-92.898 105.16 7.0625-6.3984c2.6641 2.5312 5.4648 5.0664 8.1289 7.7305-2.3984 2.1328-4.7969 4.3984-7.332 6.5312-2.6641-2.5312-5.1992-5.1992-7.8633-7.8633zm10.93-10.129 10.531-9.7305c1.8672 1.7344 3.7305 3.5977 5.5977 5.332 0.93359 0.80078 1.8672 1.7344 2.6641 2.5312-1.332 1.332-2.8008 2.6641-4.1328 3.8633-2.1328 2-4.2656 3.8633-6.3984 5.8633-2.8008-2.6641-5.4648-5.1992-8.2617-7.8633zm14.527-13.461 15.461-14.395c2.9336 2.5312 5.7305 5.0664 8.6641 7.5977-5.332 4.9297-10.531 9.8633-15.859 14.793-2.8008-2.6641-5.5977-5.332-8.2617-7.9961zm19.324-17.992 1.5977-1.4648 10.395-9.5977 2.5312 2.2656c2.5312 2.2656 6.3984-1.4648 3.7305-3.8633l-2.3984-2.1328 38.52-35.719 6.6641 6.1328c-10.531 10.797-21.191 21.457-31.855 31.988-6.7969 6.6641-13.727 13.328-20.527 19.859-2.8008-2.5312-5.7305-5.0664-8.6641-7.4648zm12.66 11.062c13.727-13.195 27.324-26.523 40.785-39.984 3.8633-3.8633 7.7305-7.8633 11.594-11.73l7.0625 6.5312c-16.129 15.328-32.254 30.656-48.113 46.117-1.7344 1.5977-3.332 3.1992-5.0664 4.9297-2.1328-2-4.1328-4-6.2656-5.8633z"/>
 </g>
</svg>